/* XPM */
static char *_ae6ffce3d074d24bc2db1a2c24510c76Tk17mQy3nZtT5PK_3[] = {
/* columns rows colors chars-per-pixel */
"18 27 256 2 ",
"   c #2C1904",
".  c #301501",
"X  c #361516",
"o  c #36220A",
"O  c #39240E",
"+  c #392514",
"@  c #3C2524",
"#  c #3C2912",
"$  c #3E290E",
"%  c #3E2B1C",
"&  c #432B0E",
"*  c #432D1C",
"=  c #433026",
"-  c #452E29",
";  c #462618",
":  c #462907",
">  c #4A2B2B",
",  c #4A2D0D",
"<  c #4B2E12",
"1  c #4B3423",
"2  c #4C320C",
"3  c #4C3618",
"4  c #4C3632",
"5  c #4D3A2F",
"6  c #52350D",
"7  c #523B34",
"8  c #533512",
"9  c #543519",
"0  c #553828",
"q  c #55390B",
"w  c #553A15",
"e  c #553B3C",
"r  c #563B3A",
"t  c #593E13",
"y  c #594235",
"u  c #5A3D35",
"i  c #5C3D1D",
"p  c #5C421A",
"a  c #5C4946",
"s  c #5D350C",
"d  c #5D452B",
"f  c #5D4B2B",
"g  c #5D5147",
"h  c #5E4223",
"j  c #5F532E",
"k  c #603C1E",
"l  c #614221",
"z  c #624543",
"x  c #62512E",
"c  c #63441A",
"v  c #644B2D",
"b  c #663C12",
"n  c #664838",
"m  c #685650",
"M  c #69512A",
"N  c #695545",
"B  c #6A3E12",
"V  c #6A4828",
"C  c #6A4D26",
"Z  c #6A5538",
"A  c #6B463C",
"S  c #6C4217",
"D  c #6C441C",
"F  c #6C5B61",
"G  c #6C5C3D",
"H  c #6C625C",
"J  c #6E4B44",
"K  c #724B31",
"L  c #735329",
"P  c #74491D",
"I  c #744E2D",
"U  c #747478",
"Y  c #76461A",
"T  c #765A3A",
"R  c #765B56",
"E  c #766B69",
"W  c #796357",
"Q  c #796645",
"!  c #7B6B4A",
"~  c #7C532B",
"^  c #7C553B",
"/  c #7D6239",
"(  c #7E5534",
")  c #7E5A36",
"_  c #825C35",
"`  c #825C49",
"'  c #835D3B",
"]  c #836B4C",
"[  c #865729",
"{  c #866954",
"}  c #876135",
"|  c #896945",
" . c #8C623C",
".. c #8C7463",
"X. c #8C7658",
"o. c #8D5F32",
"O. c #906546",
"+. c #926B4B",
"@. c #926E52",
"#. c #936235",
"$. c #94653B",
"%. c #946C43",
"&. c #97683A",
"*. c #998766",
"=. c #9A6D41",
"-. c #9B7454",
";. c #9C6D3D",
":. c #9C6F49",
">. c #9C8057",
",. c #9D734A",
"<. c #9E7244",
"1. c #A37345",
"2. c #A4764A",
"3. c #A47A55",
"4. c #A48B71",
"5. c #A57E65",
"6. c #A7753C",
"7. c #A77947",
"8. c #AB7B4C",
"9. c #AB7D53",
"0. c #AB8254",
"q. c #AB835B",
"w. c #AB8769",
"e. c #AD824B",
"r. c #AD9987",
"t. c #B3834D",
"y. c #B47A43",
"u. c #B48454",
"i. c #B48558",
"p. c #B48953",
"a. c #B48D62",
"s. c #B58B5B",
"d. c #B5A06E",
"f. c #B5A28F",
"g. c #B88549",
"h. c #B8956A",
"j. c #B9A374",
"k. c #BB7F48",
"l. c #BB8B5D",
"z. c #BB8C52",
"x. c #BD8256",
"c. c #BD9264",
"v. c #C17B4A",
"b. c #C1854E",
"n. c #C19362",
"m. c #C29157",
"M. c #C2A46E",
"N. c #C38C5B",
"B. c #C38D53",
"V. c #C4925A",
"C. c #C49569",
"Z. c #C68652",
"A. c #CA8C57",
"S. c #CA8C5A",
"D. c #CB8551",
"F. c #CB935C",
"G. c #CB9869",
"H. c #CE9564",
"J. c #D38955",
"K. c None",
"L. c black",
"P. c black",
"I. c black",
"U. c black",
"Y. c black",
"T. c black",
"R. c black",
"E. c black",
"W. c black",
"Q. c black",
"!. c black",
"~. c black",
"^. c black",
"/. c black",
"(. c black",
"). c black",
"_. c black",
"`. c black",
"'. c black",
"]. c black",
"[. c black",
"{. c black",
"}. c black",
"|. c black",
" X c black",
".X c black",
"XX c black",
"oX c black",
"OX c black",
"+X c black",
"@X c black",
"#X c black",
"$X c black",
"%X c black",
"&X c black",
"*X c black",
"=X c black",
"-X c black",
";X c black",
":X c black",
">X c black",
",X c black",
"<X c black",
"1X c black",
"2X c black",
"3X c black",
"4X c black",
"5X c black",
"6X c black",
"7X c black",
"8X c black",
"9X c black",
"0X c black",
"qX c black",
"wX c black",
"eX c black",
"rX c black",
"tX c black",
"yX c black",
"uX c black",
"iX c black",
"pX c black",
"aX c black",
"sX c black",
"dX c black",
"fX c black",
"gX c black",
"hX c black",
"jX c black",
"kX c black",
"lX c black",
"zX c black",
"xX c black",
"cX c black",
"vX c black",
"bX c black",
"nX c black",
"mX c black",
"MX c black",
"NX c black",
"BX c black",
"VX c black",
"CX c black",
"ZX c black",
"AX c black",
"SX c black",
"DX c black",
"FX c black",
"GX c black",
"HX c black",
"JX c black",
"KX c black",
"LX c black",
"PX c black",
"IX c black",
"UX c black",
/* pixels */
"K.K.K.K.K.X.Q Q x f j G G K.K.K.K.K.",
"K.K.K.K.*.] h 2 3 < , 3 t x X.K.K.K.",
"K.K.K.K.! i 9 8 t 9 2 < < 3 Q K.K.K.",
"K.K.K.K.M ^ I I I I l w 6 , w ! K.K.",
"K.K.K.' ) 3.=.=.%.%._ P s : , v K.K.",
"K.K.K.%.,.i.t.t.8.8.;.[ b 6 2 2 L K.",
"K.K.4.w.n.n.N.V.B.g.t.6.#.c q t w K.",
"K.f.4.-.q.n.V.B.m.m.z.p.p.O.p c w M ",
"K.....] +.q.l.n.c.q.2.:.:.>./ l t T ",
"F m m J ^ | 3.a.5.| ^ K K ) @.T 8 T ",
"g m m e r u ` { A 0 0 0 0 n ` ` 3 v ",
"a E R 5 4 > > > + 4 u u u > y z z n ",
"K.H m - = @ 7 X ; $ * 1 5 4 - 4 W N ",
"K.R z * * n @.5 . O % O # 4 5 N 3 G ",
"K.r...K V 3.h.' O o O O & 1 T ] L | ",
"K.d.w.a.i.C.N.y.T d 9 9 V ' -.%.$.1.",
"K.j.h.V.H.H.D.Z.9.3.3.,.2.0.0.o.1.K.",
"K.M.h.x.H.F.J.J.t.m.G.F.m.g.e.o.7.K.",
"K.h.a.l.H.S.v.Z.y.b.F.A.Z.g.7.[ K.K.",
"K.3.,.:.8.8.#.;.8.x.S.Z.k.p.<.} K.K.",
"K.@. .S B B Y b &.1.g.k.k.0.} L K.K.",
"K.@.T D _ ~ P S P P o.8.8.:.L / K.K.",
"K.K.v k } ,.2.<.( b S ;.<.C Z K.K.K.",
"K.K.0 C =.=.e.8.[ ( D O.I 3 G K.K.K.",
"K.K.x L s.<.1.=.O.O.c C < 5 g K.K.K.",
"K.K.m C s.l.e.8.9. .w $ o a K.K.K.K.",
"U F H l %.9.u.7.=.I ,   7 H E K.K.K."
};
