/* XPM */
static char *_ae6ffce3d074d24bc2db1a2c24510c76Tk17mQy3nZtT5PK_0[] = {
/* columns rows colors chars-per-pixel */
"18 27 256 2 ",
"   c #2F1903",
".  c #331A02",
"X  c #381F11",
"o  c #3B250B",
"O  c #3C1904",
"+  c #3C191B",
"@  c #3C2304",
"#  c #3E2013",
"$  c #412412",
"%  c #43250A",
"&  c #432906",
"*  c #432A1A",
"=  c #442B30",
"-  c #462B09",
";  c #482928",
":  c #493228",
">  c #4A2B1C",
",  c #4A2D23",
"<  c #4A310D",
"1  c #4A3734",
"2  c #4B2908",
"3  c #4C2C0B",
"4  c #4E3830",
"5  c #502F28",
"6  c #512B17",
"7  c #522D0B",
"8  c #523633",
"9  c #523C2D",
"0  c #533C3C",
"q  c #54310C",
"w  c #543313",
"e  c #55341C",
"r  c #553D32",
"t  c #56401C",
"y  c #59351B",
"u  c #593938",
"i  c #5A3D1B",
"p  c #5B3A29",
"a  c #5B3C0E",
"s  c #5B413C",
"d  c #5B4846",
"f  c #5C3514",
"g  c #5C4335",
"h  c #613E33",
"j  c #62463D",
"k  c #624F51",
"l  c #633914",
"z  c #634229",
"x  c #644515",
"c  c #65360A",
"v  c #663E1C",
"b  c #66483B",
"n  c #664A29",
"m  c #674945",
"M  c #674E35",
"N  c #675757",
"B  c #675B53",
"V  c #683F26",
"C  c #6A4223",
"Z  c #6B5A5D",
"A  c #6C3E19",
"S  c #6D4B35",
"D  c #6D5234",
"F  c #6E431C",
"G  c #6E4D2B",
"H  c #6F4A24",
"J  c #705344",
"K  c #714629",
"L  c #717075",
"P  c #724622",
"I  c #734C2B",
"U  c #735535",
"Y  c #73635A",
"T  c #744D33",
"R  c #746966",
"E  c #75564C",
"W  c #755A3A",
"Q  c #76451A",
"!  c #786A59",
"~  c #7A5442",
"^  c #7A6957",
"/  c #7C4D26",
"(  c #7C4D32",
")  c #7C5432",
"_  c #7D6340",
"`  c #81654B",
"'  c #845535",
"]  c #845D4B",
"[  c #846861",
"{  c #85562A",
"}  c #855D3B",
"|  c #8A5A38",
" . c #8A5D35",
".. c #8A7966",
"X. c #8B562C",
"o. c #8B5B43",
"O. c #8B6549",
"+. c #8B695A",
"@. c #8B6A42",
"#. c #8D633A",
"$. c #916C4B",
"%. c #935E37",
"&. c #956443",
"*. c #956943",
"=. c #967352",
"-. c #987247",
";. c #9C653B",
":. c #9C6543",
">. c #9C6C4A",
",. c #9C7453",
"<. c #9D8466",
"1. c #9E724D",
"2. c #A29071",
"3. c #A37149",
"4. c #A37453",
"5. c #A47953",
"6. c #A4805F",
"7. c #A5612E",
"8. c #A57C4D",
"9. c #A57E64",
"0. c #AA6D40",
"q. c #AB744E",
"w. c #AB7A54",
"e. c #AB845C",
"r. c #AC794F",
"t. c #AC7A5B",
"y. c #AE7754",
"u. c #AF9169",
"i. c #B16D39",
"p. c #B2764D",
"a. c #B47A5A",
"s. c #B57C54",
"d. c #B5825C",
"f. c #B58562",
"g. c #B59870",
"h. c #B7743D",
"j. c #B88C6D",
"k. c #B9835B",
"l. c #B98659",
"z. c #BA7A52",
"x. c #BCA07C",
"c. c #BD8662",
"v. c #BD8B62",
"b. c #BD9B6D",
"n. c #BE9264",
"m. c #C27D4B",
"M. c #C27D51",
"N. c #C2835B",
"B. c #C38D62",
"V. c #C39263",
"C. c #C48254",
"Z. c #C79569",
"A. c #C98956",
"S. c #CB8A5E",
"D. c #CC9462",
"F. c #D1875A",
"G. c None",
"H. c black",
"J. c black",
"K. c black",
"L. c black",
"P. c black",
"I. c black",
"U. c black",
"Y. c black",
"T. c black",
"R. c black",
"E. c black",
"W. c black",
"Q. c black",
"!. c black",
"~. c black",
"^. c black",
"/. c black",
"(. c black",
"). c black",
"_. c black",
"`. c black",
"'. c black",
"]. c black",
"[. c black",
"{. c black",
"}. c black",
"|. c black",
" X c black",
".X c black",
"XX c black",
"oX c black",
"OX c black",
"+X c black",
"@X c black",
"#X c black",
"$X c black",
"%X c black",
"&X c black",
"*X c black",
"=X c black",
"-X c black",
";X c black",
":X c black",
">X c black",
",X c black",
"<X c black",
"1X c black",
"2X c black",
"3X c black",
"4X c black",
"5X c black",
"6X c black",
"7X c black",
"8X c black",
"9X c black",
"0X c black",
"qX c black",
"wX c black",
"eX c black",
"rX c black",
"tX c black",
"yX c black",
"uX c black",
"iX c black",
"pX c black",
"aX c black",
"sX c black",
"dX c black",
"fX c black",
"gX c black",
"hX c black",
"jX c black",
"kX c black",
"lX c black",
"zX c black",
"xX c black",
"cX c black",
"vX c black",
"bX c black",
"nX c black",
"mX c black",
"MX c black",
"NX c black",
"BX c black",
"VX c black",
"CX c black",
"ZX c black",
"AX c black",
"SX c black",
"DX c black",
"FX c black",
"GX c black",
"HX c black",
"JX c black",
"KX c black",
"LX c black",
"PX c black",
"IX c black",
"UX c black",
/* pixels */
"G.G.G.G.G.` ` M z z M ~ D G.G.G.G.G.",
"G.G.G.G._ W w - 2 & < w n G.G.G.G.G.",
"G.G.G.G.D a l l l a w - < n G.G.G.G.",
"G.G.G.) I #. .#.| { C w - < M <.G.G.",
"G.G.G.{ &.a.y.s.p.3.%.C q - t ` G.G.",
"G.G.G.e.v.v.D.S.N.N.y.&.F 7 w D G.G.",
"G.G.2.6.v.V.D.D.Z.V.v.c.w.F v e G.G.",
"G.....` =.e.v.Z.j.t.*. .*.O.C y G G.",
"G.B Z m E +.e.9.+.J h h h O.~ e n G.",
"N N R d s s J b 5 j u r 8 b J e i G.",
"k Z N 0 0 ; ; + , g g r r = 4 m h G.",
"G.Z k : , 9 E $ $ * : , : = 1 m J S ",
"G.Y m * > +.9.l   $ * $ $ 4 E h h ] ",
"G.x.6.} | f.S.3.3 # % 6 l } ,.) } ,.",
"G.b.f.B.B.N.A.M.>.#.' &.3.w.w. .#.>.",
"G.g.n.S.S.F.F.m.C.N.k.c.k.a.3. .*.G.",
"G.u.n.l.A.A.m.m.h.A.C.N.N.s.;.%.8.G.",
"G.u.e.r.r.0.;.i.i.m.C.C.l.z.%.%.G.G.",
"G.=.@.) H / Q / 7.p.z.z.z.q.{ %.G.G.",
"G.=.} x G H l c Q X.0.y.r.3./ &.G.G.",
"G.W T i } 5.1.%./ c Q 3.*./ A G.G.G.",
"G.G.p V ( 4.d.3.| P F *.K y i G.G.G.",
"G.G.e U >.*.>.%.' } C I 7 p ~ G.G.G.",
"G.G.g U j.w.3.*.-.} f w O n G.G.G.G.",
"G.G.G.G e.d.a.5.$.S - . X ` G.G.G.G.",
"G.G.[ C *.*.3.&.U t @ o M ^ G.G.G.G.",
"L Z Y V #.1.:.o.n o . J ..! R G.G.G."
};
