/* XPM */
static char *_ae6ffce3d074d24bc2db1a2c24510c76Tk17mQy3nZtT5PK_14[] = {
/* columns rows colors chars-per-pixel */
"18 27 256 2 ",
"   c #272200",
".  c #2B1C08",
"X  c #2B2300",
"o  c #352C02",
"O  c #362416",
"+  c #372619",
"@  c #372B19",
"#  c #3A240D",
"$  c #3A2D1C",
"%  c #3B2B15",
"&  c #3B2D00",
"*  c #3D321C",
"=  c #3E3304",
"-  c #412F0F",
";  c #423302",
":  c #43341C",
">  c #433A0A",
",  c #442C22",
"<  c #44350C",
"1  c #483709",
"2  c #483727",
"3  c #4A3B01",
"4  c #4A3B24",
"5  c #4B3E14",
"6  c #4C3D0E",
"7  c #4F4106",
"8  c #503E15",
"9  c #513E25",
"0  c #514113",
"q  c #51420B",
"w  c #52431A",
"e  c #534223",
"r  c #534534",
"t  c #553E2E",
"y  c #574509",
"u  c #574714",
"i  c #584828",
"p  c #585020",
"a  c #594735",
"s  c #5A4D14",
"d  c #5B4A04",
"f  c #5B4C0C",
"g  c #5C4B1B",
"h  c #5C532B",
"j  c #5D5133",
"k  c #5E5141",
"l  c #60542C",
"z  c #614F21",
"x  c #624C2E",
"c  c #634E0A",
"v  c #63520B",
"b  c #645313",
"n  c #655524",
"m  c #655744",
"M  c #655827",
"N  c #665752",
"B  c #695517",
"V  c #695838",
"C  c #6A624D",
"Z  c #6A6436",
"A  c #6C5B26",
"S  c #6C5B2B",
"D  c #6D5D45",
"F  c #6E633D",
"G  c #6E693B",
"H  c #715D2B",
"J  c #725D1B",
"K  c #736E72",
"L  c #745176",
"P  c #745D34",
"I  c #74652A",
"U  c #756222",
"Y  c #786567",
"T  c #786938",
"R  c #786958",
"E  c #786A4C",
"W  c #796432",
"Q  c #7A4B8B",
"!  c #7A6B41",
"~  c #7C672B",
"^  c #7C6B2A",
"/  c #7C7358",
"(  c #7D7037",
")  c #7F4F94",
"_  c #7F7446",
"`  c #816E2E",
"'  c #835891",
"]  c #836D26",
"[  c #83707A",
"{  c #844E9E",
"}  c #846E3C",
"|  c #847235",
" . c #84743B",
".. c #847547",
"X. c #87752D",
"o. c #8A743B",
"O. c #8B7C4B",
"+. c #8C6C90",
"@. c #8D764F",
"#. c #8D7B3C",
"$. c #8D7C44",
"%. c #8D7D66",
"&. c #8E823F",
"*. c #917C53",
"=. c #917F3A",
"-. c #948343",
";. c #988866",
":. c #988957",
">. c #99843A",
",. c #998546",
"<. c #998847",
"1. c #9B8B4A",
"2. c #A18C3D",
"3. c #A18C45",
"4. c #A28F4D",
"5. c #A38D53",
"6. c #A4924A",
"7. c #A6935B",
"8. c #A69453",
"9. c #A69869",
"0. c #A89648",
"q. c #A99756",
"w. c #A99776",
"e. c #AB944C",
"r. c #AC945B",
"t. c #AC9B5A",
"y. c #AD943D",
"u. c #B19B60",
"i. c #B29D54",
"p. c #B2A882",
"a. c #B39D4D",
"s. c #B39E5B",
"d. c #B6A456",
"f. c #B89E4C",
"g. c #BAA76C",
"h. c #BBA24B",
"j. c #BBA452",
"k. c #BBA564",
"l. c #BCA45B",
"z. c #BCAA5C",
"x. c #BD9F56",
"c. c #BEAC65",
"v. c #C2AB4A",
"b. c #C2AC62",
"n. c #C2AD5B",
"m. c #C3AB54",
"M. c #C3AC69",
"N. c #C5B263",
"B. c #C6B45F",
"V. c #C7B27A",
"C. c #C7B66A",
"Z. c #CAB157",
"A. c #CBB363",
"S. c #CBB36B",
"D. c #CBB868",
"F. c #CDB35D",
"G. c #CDB877",
"H. c #CFB965",
"J. c #D1BD72",
"K. c #D1BF83",
"L. c #D2B766",
"P. c None",
"I. c black",
"U. c black",
"Y. c black",
"T. c black",
"R. c black",
"E. c black",
"W. c black",
"Q. c black",
"!. c black",
"~. c black",
"^. c black",
"/. c black",
"(. c black",
"). c black",
"_. c black",
"`. c black",
"'. c black",
"]. c black",
"[. c black",
"{. c black",
"}. c black",
"|. c black",
" X c black",
".X c black",
"XX c black",
"oX c black",
"OX c black",
"+X c black",
"@X c black",
"#X c black",
"$X c black",
"%X c black",
"&X c black",
"*X c black",
"=X c black",
"-X c black",
";X c black",
":X c black",
">X c black",
",X c black",
"<X c black",
"1X c black",
"2X c black",
"3X c black",
"4X c black",
"5X c black",
"6X c black",
"7X c black",
"8X c black",
"9X c black",
"0X c black",
"qX c black",
"wX c black",
"eX c black",
"rX c black",
"tX c black",
"yX c black",
"uX c black",
"iX c black",
"pX c black",
"aX c black",
"sX c black",
"dX c black",
"fX c black",
"gX c black",
"hX c black",
"jX c black",
"kX c black",
"lX c black",
"zX c black",
"xX c black",
"cX c black",
"vX c black",
"bX c black",
"nX c black",
"mX c black",
"MX c black",
"NX c black",
"BX c black",
"VX c black",
"CX c black",
"ZX c black",
"AX c black",
"SX c black",
"DX c black",
"FX c black",
"GX c black",
"HX c black",
"JX c black",
"KX c black",
"LX c black",
"PX c black",
"IX c black",
"UX c black",
/* pixels */
"P.P.P.P.P.P.M T M l M ! h P.P.P.P.P.",
"P.P.P.P.P.G p 5 > & = w p Z P.P.P.P.",
"P.P.P.P.Z e u q s w 6 1 5 p T P.P.P.",
"P.P.P.P.F W T ^ | T n q 1 < M ( P.P.",
"P.P.P...O.t.4.4.4.<.| B 7 ; 7 A P.P.",
"P.P.P.9.u.k.b.z.a.a.2.| v 3 y f ( P.",
"P.P.P.p.M.B.B.A.N.N.n.l.,.c v g n P.",
"P.P.;.%.7.b.A.S.M.s.q.4.q. .b g 0 H ",
"P.L Y R @.r.c.g.:.! H S ! :._ g 8 S ",
"{ Q K k j ..*.E i x t 4 e / %.j 5 V ",
") ' Y a a 9 , 2 9 m a a 4 a m m 9 j ",
"P.+.Y 9 2 x 4 2 2 4 : r a $ * m k r ",
"P.[ N 4 e 9._ # % : + * 4 % D m 4 i ",
"P.w.;.H 1.G.u.g # % @ O 4 ! 7. .g I ",
"P.K.V.c.C.N.l.1.~ S M P O.7.q.| =.5.",
"P.J.C.N.A.m.n.l.k.l.s.s.d.s.0.^ 1.<.",
"P.D.N.N.D.j.n.h.m.H.H.N.m.x.1.| 0.P.",
"P.c.d.d.l.3.e.y.j.L.F.Z.m.x.-.#.i.P.",
"P.t.,.` o.| ] >.f.Z.Z.v.h.i.X.>.P.P.",
"P.*...S z n d b =.f.j.h.f.1.~ =.P.P.",
"P.P.S n 1.1.o.U b J 6.e.3.} S O.P.P.",
"P.P.0 M &.s.t.<.J b #.8.` z l P.P.P.",
"P.P.i T -.1.t.#.^ ^  .} g 3 S P.P.P.",
"P.P.h ! 9.4.8.,.1.` M u - 8 M P.P.P.",
"P.P.P.F 7.s.u.q.<.A > o . i P.P.P.P.",
"P.P.C l $.1.4.1.^ u o X r E P.P.P.P.",
"[ Y C i O.,.#.X.f o   h ;.R K P.P.P."
};
