/* XPM */
static char *_ae6ffce3d074d24bc2db1a2c24510c76Tk17mQy3nZtT5PK_15[] = {
/* columns rows colors chars-per-pixel */
"18 27 256 2 ",
"   c #2C1C00",
".  c #33240D",
"X  c #362705",
"o  c #372614",
"O  c #3B2B14",
"+  c #3B2D02",
"@  c #3B2D20",
"#  c #3B311B",
"$  c #3C3401",
"%  c #3E3123",
"&  c #402820",
"*  c #41341E",
"=  c #423522",
"-  c #433A0D",
";  c #433C03",
":  c #473D13",
">  c #483527",
",  c #483A06",
"<  c #493B1A",
"1  c #494604",
"2  c #4A481D",
"3  c #4B4400",
"4  c #4C4313",
"5  c #4D3C2C",
"6  c #4F4320",
"7  c #514903",
"8  c #524B14",
"9  c #534A0B",
"0  c #544435",
"q  c #544512",
"w  c #544A22",
"e  c #55481C",
"r  c #57463A",
"t  c #584627",
"y  c #594E08",
"u  c #594E13",
"i  c #5A4B41",
"p  c #5A4C1B",
"a  c #5B4D24",
"s  c #5B4F34",
"d  c #5C5428",
"f  c #5D531C",
"g  c #5E4B54",
"h  c #5F520E",
"j  c #625B2C",
"k  c #634D1F",
"l  c #635C25",
"z  c #645713",
"x  c #65522A",
"c  c #664B39",
"v  c #66591A",
"b  c #685734",
"n  c #68632E",
"m  c #686454",
"M  c #6A5922",
"N  c #6A6339",
"B  c #6B5C3C",
"V  c #6C601B",
"C  c #6D6324",
"Z  c #6F6117",
"A  c #715E67",
"S  c #716245",
"D  c #72631C",
"F  c #72652D",
"G  c #736C3A",
"H  c #755E19",
"J  c #756735",
"K  c #765671",
"L  c #766D43",
"P  c #78656A",
"I  c #786C1E",
"U  c #796F49",
"Y  c #7A6B2C",
"T  c #7A7337",
"R  c #7B4F8D",
"E  c #7C6A23",
"W  c #7C723F",
"Q  c #7C7571",
"!  c #7D4E9E",
"~  c #816082",
"^  c #816B68",
"/  c #816E45",
"(  c #81722D",
")  c #81743D",
"_  c #826C29",
"`  c #83589A",
"'  c #836D3A",
"]  c #8552AA",
"[  c #868050",
"{  c #877028",
"}  c #877A47",
"|  c #887834",
" . c #897951",
".. c #8A7B3A",
"X. c #8A7E57",
"o. c #8C7442",
"O. c #8E8243",
"+. c #8F8846",
"@. c #928544",
"#. c #948561",
"$. c #957C3B",
"%. c #958A49",
"&. c #958B65",
"*. c #988859",
"=. c #9A8639",
"-. c #9C8B44",
";. c #9C904B",
":. c #9C9168",
">. c #9D8545",
",. c #9D9158",
"<. c #A2883C",
"1. c #A38D45",
"2. c #A3944C",
"3. c #A48B4A",
"4. c #A48C60",
"5. c #A59243",
"6. c #A59B55",
"7. c #A7955C",
"8. c #A89756",
"9. c #AA9A65",
"0. c #AC954A",
"q. c #AC9B5C",
"w. c #AD955C",
"e. c #AD9C54",
"r. c #AEA057",
"t. c #AEA260",
"y. c #B39A5D",
"u. c #B39C4B",
"i. c #B39E52",
"p. c #B4A055",
"a. c #B4A55D",
"s. c #B8A472",
"d. c #B8A580",
"f. c #B99F54",
"g. c #BAAB57",
"h. c #BBA55C",
"j. c #BBA563",
"k. c #BCAB5F",
"l. c #BDAC63",
"z. c #BEA769",
"x. c #C2A96B",
"c. c #C3AC53",
"v. c #C3AC63",
"b. c #C4B365",
"n. c #C4B46A",
"m. c #C5AE5A",
"M. c #C8B479",
"N. c #CBB35D",
"B. c #CBB364",
"V. c #CBB574",
"C. c #CCB16B",
"Z. c #CCB974",
"A. c #CFBA84",
"S. c #D0B664",
"D. c #D1B56C",
"F. c #D2B975",
"G. c #D4BA6D",
"H. c None",
"J. c black",
"K. c black",
"L. c black",
"P. c black",
"I. c black",
"U. c black",
"Y. c black",
"T. c black",
"R. c black",
"E. c black",
"W. c black",
"Q. c black",
"!. c black",
"~. c black",
"^. c black",
"/. c black",
"(. c black",
"). c black",
"_. c black",
"`. c black",
"'. c black",
"]. c black",
"[. c black",
"{. c black",
"}. c black",
"|. c black",
" X c black",
".X c black",
"XX c black",
"oX c black",
"OX c black",
"+X c black",
"@X c black",
"#X c black",
"$X c black",
"%X c black",
"&X c black",
"*X c black",
"=X c black",
"-X c black",
";X c black",
":X c black",
">X c black",
",X c black",
"<X c black",
"1X c black",
"2X c black",
"3X c black",
"4X c black",
"5X c black",
"6X c black",
"7X c black",
"8X c black",
"9X c black",
"0X c black",
"qX c black",
"wX c black",
"eX c black",
"rX c black",
"tX c black",
"yX c black",
"uX c black",
"iX c black",
"pX c black",
"aX c black",
"sX c black",
"dX c black",
"fX c black",
"gX c black",
"hX c black",
"jX c black",
"kX c black",
"lX c black",
"zX c black",
"xX c black",
"cX c black",
"vX c black",
"bX c black",
"nX c black",
"mX c black",
"MX c black",
"NX c black",
"BX c black",
"VX c black",
"CX c black",
"ZX c black",
"AX c black",
"SX c black",
"DX c black",
"FX c black",
"GX c black",
"HX c black",
"JX c black",
"KX c black",
"LX c black",
"PX c black",
"IX c black",
"UX c black",
/* pixels */
"H.H.H.H.H.&.j L d j N W U H.H.H.H.H.",
"H.H.H.H.&. .H.: H.$ $ 7 d G H.H.H.H.",
"H.H.H.H.U w q 4 u 9 H.; - f G H.H.H.",
"H.H.H.H.H.J G T ( T z 3 ; ; d [ H.H.",
"H.H.H...O.H.2.8.H.;.H.v 3 $ : N H.H.",
"H.H.H.8.t.l.v.l.p.i.2.| y 7 1 8 / H.",
"H.H.H.s.n.b.B.B.B.v.h.k.=.y z f a H.",
"H.H.H.#.H.x.C.D.C.h.8.w.8.) f f a G ",
"H.~ H.H. .7.z.H.*.' M H.' ,.W e 4 S ",
"] R P g H.L H./ t c t t t / X.j : H.",
"! ` K i 0 > H.& 5 H.i r 5 5 H.b < a ",
"H.H.P 5 = s > * % H.> 0 5 @ H.x b a ",
"H.^ H.= w 4.U . o # O = > > H.x 4 a ",
"H.d.4.b %.n.q.a . O X O < U :.W a F ",
"H.A.M.z.b.c.g.H.Y H.B J o.7.9.) o.%.",
"H.F.V.Z.B.m.c.H.x.z.j.j.j.f.H.{ <.=.",
"H.Z.n.C.B.m.m.f.m.G.B.S.B.f.1.{ u.H.",
"H.x.p.h.H.5.0.0.H.S.H.N.m.u.$.H.h.H.",
"H.q.H.| { ( E =.u.b.b.l.h.0._ =.h.H.",
"H.*.} V v v h Z @.r.a.a.a.H.I O.H.H.",
"H.H.n j %.-.( D v D ;.6.;.| F +.H.H.",
"H.H.2 j O.h.i.>.H h O.;.) f l H.H.H.",
"H.H.w G O.;.e.=._ ) } ) u 4 N H.H.H.",
"H.H.j L t.H.1.H.%.) C p H.6 s H.H.H.",
"H.H.H.F 9.a.i.y.*.H., X . 0 H.H.H.H.",
"H.H.H.j +.-.2.3.' t X . s ^ H.H.H.H.",
"Q m H.d O.H.$.o.k +   a H.P P A H.H."
};
