/* XPM */
static char *_ae6ffce3d074d24bc2db1a2c24510c76Tk17mQy3nZtT5PK_4[] = {
/* columns rows colors chars-per-pixel */
"18 27 256 2 ",
"   c #2C0E00",
".  c #2C1C02",
"X  c #331C1F",
"o  c #34220C",
"O  c #361D04",
"+  c #3B240B",
"@  c #3B2513",
"#  c #3B2909",
"$  c #3B2A14",
"%  c #3C2325",
"&  c #3F2C19",
"*  c #432A04",
"=  c #432F17",
"-  c #442C0E",
";  c #453427",
":  c #462B22",
">  c #463212",
",  c #473630",
"<  c #4B3313",
"1  c #4B350D",
"2  c #4B3A2A",
"3  c #4C340D",
"4  c #4D361A",
"5  c #4D3A32",
"6  c #4E3634",
"7  c #4E3912",
"8  c #522D08",
"9  c #523518",
"0  c #523D3B",
"q  c #533515",
"w  c #533C1B",
"e  c #543E34",
"r  c #553A29",
"t  c #554342",
"y  c #554423",
"u  c #583809",
"i  c #583A16",
"p  c #5A4234",
"a  c #5B3B1B",
"s  c #5B451B",
"d  c #5B453A",
"f  c #5C431C",
"g  c #5D4315",
"h  c #5F4E2B",
"j  c #61512E",
"k  c #633D11",
"l  c #63431D",
"z  c #634D3B",
"x  c #644725",
"c  c #64491F",
"v  c #654C2A",
"b  c #655142",
"n  c #67463A",
"m  c #684517",
"M  c #69431C",
"N  c #695738",
"B  c #6A5433",
"V  c #6B532C",
"C  c #6B5443",
"Z  c #6D6457",
"A  c #70461A",
"S  c #725946",
"D  c #734C22",
"F  c #755531",
"G  c #756562",
"H  c #765428",
"J  c #765F62",
"K  c #775B3A",
"L  c #796455",
"P  c #7A643E",
"I  c #7B6748",
"U  c #7C552C",
"Y  c #7D5C4C",
"T  c #7E5B37",
"R  c #82724F",
"E  c #866438",
"W  c #876945",
"Q  c #876C55",
"!  c #8A6543",
"~  c #8B7C5B",
"^  c #8C6134",
"/  c #8C7954",
"(  c #8D7471",
")  c #8D7748",
"_  c #8E7137",
"`  c #926E4A",
"'  c #93602F",
"]  c #936D42",
"[  c #946A3E",
"{  c #957449",
"}  c #957A55",
"|  c #96805B",
" . c #977544",
".. c #9A6E45",
"X. c #9C7244",
"o. c #9C724A",
"O. c #9D703F",
"+. c #A1744D",
"@. c #A27443",
"#. c #A27C53",
"$. c #A4794B",
"%. c #A4805D",
"&. c #A57A55",
"*. c #A58A7A",
"=. c #A7896B",
"-. c #A87745",
";. c #A87B3F",
":. c #AA7C4C",
">. c #AC733C",
",. c #AC8454",
"<. c #B18957",
"1. c #B18E63",
"2. c #B29B87",
"3. c #B37A3F",
"4. c #B38353",
"5. c #B38B5D",
"6. c #B4834C",
"7. c #B49362",
"8. c #B57A47",
"9. c #B5A28B",
"0. c #B6894D",
"q. c #B9875B",
"w. c #B9946B",
"e. c #BA8A4F",
"r. c #BA8E61",
"t. c #BB8A53",
"y. c #BC8C5C",
"u. c #BC915D",
"i. c #BD854E",
"p. c #BD9264",
"a. c #BE7F4D",
"s. c #C09256",
"d. c #C1935B",
"f. c #C4844E",
"g. c #C48B54",
"h. c #C49765",
"j. c #C59D6C",
"k. c #C68651",
"l. c #C98F5C",
"z. c #CB8A54",
"x. c #CC925B",
"c. c #CD9C6B",
"v. c #D08D56",
"b. c #D39A68",
"n. c None",
"m. c black",
"M. c black",
"N. c black",
"B. c black",
"V. c black",
"C. c black",
"Z. c black",
"A. c black",
"S. c black",
"D. c black",
"F. c black",
"G. c black",
"H. c black",
"J. c black",
"K. c black",
"L. c black",
"P. c black",
"I. c black",
"U. c black",
"Y. c black",
"T. c black",
"R. c black",
"E. c black",
"W. c black",
"Q. c black",
"!. c black",
"~. c black",
"^. c black",
"/. c black",
"(. c black",
"). c black",
"_. c black",
"`. c black",
"'. c black",
"]. c black",
"[. c black",
"{. c black",
"}. c black",
"|. c black",
" X c black",
".X c black",
"XX c black",
"oX c black",
"OX c black",
"+X c black",
"@X c black",
"#X c black",
"$X c black",
"%X c black",
"&X c black",
"*X c black",
"=X c black",
"-X c black",
";X c black",
":X c black",
">X c black",
",X c black",
"<X c black",
"1X c black",
"2X c black",
"3X c black",
"4X c black",
"5X c black",
"6X c black",
"7X c black",
"8X c black",
"9X c black",
"0X c black",
"qX c black",
"wX c black",
"eX c black",
"rX c black",
"tX c black",
"yX c black",
"uX c black",
"iX c black",
"pX c black",
"aX c black",
"sX c black",
"dX c black",
"fX c black",
"gX c black",
"hX c black",
"jX c black",
"kX c black",
"lX c black",
"zX c black",
"xX c black",
"cX c black",
"vX c black",
"bX c black",
"nX c black",
"mX c black",
"MX c black",
"NX c black",
"BX c black",
"VX c black",
"CX c black",
"ZX c black",
"AX c black",
"SX c black",
"DX c black",
"FX c black",
"GX c black",
"HX c black",
"JX c black",
"KX c black",
"LX c black",
"PX c black",
"IX c black",
"UX c black",
/* pixels */
"n.n.n.n.n.~ | n.B n.h n.R S n.n.n.n.",
"n.n.n.n.n.n.f < < > > > y N R n.n.n.",
"n.n.n.n./ n.n.q a q 9 n.3 w n.~ n.n.",
"n.n.n.| K F n.n.n.V x q 8 > s R n.n.",
"n.n.n.T T #.....n.! n.M u * - V } n.",
"n.n.n.] ..<.q.q.n.$.X.n.M n.1 7 P n.",
"n.n.=.1.p.p.u.d.t.e.0.;.[ m u n.x P ",
"n.9.*.} n.p.d.s.d.u.n.u.u._ n.g w B ",
"n.n.n.n.W n.r.u.n.n.+.o. .} n.f w K ",
"( n.b C S Q %.1.%.n.F n.B K ) K 7 K ",
"n.n.b 0 e d Q n.n r r r r v I I 4 j ",
"t G n.5 , , 6 : @ 5 d e e 6 e z b z ",
"n.Z S ; n.n.e X & & & n.e 0 % , n.S ",
"n.L b = & d | r   o & $ ; , 2 S r K ",
"n.2.| B x %.w.! O n.= + + r Y ` F ` ",
"n.j.5.5.4.n.n.4.F x i i n.E #.n.n.+.",
"n.j.h.h.c.n.l.a.:.&.+.o.+.n.n.n.n.n.",
"n.j.d.y.b.x.v.k.8.y.h.g.i.e.6.' y.n.",
"n.7.<.n.b.x.a.f.3.n.x.n.k.e.-.^ 4.n.",
"n.| ) X.:.n.' O.>.a.l.z.f.0.@.^ n.n.",
"n.R I c m M A n.[ @.4.n.3.4.^ ! n.n.",
"n.Q S x n.H D n.M A ' n.>. .n.E n.n.",
"n.S d f E +.$.X.U k M @.@.n.V n.n.n.",
"n.n.p n.{ ] ,.+.U U n.! n.7 n.n.n.n.",
"n.n.d n.1.o.+.[ n.! l x - 2 z n.n.n.",
"n.n.S n.1.r.5.:.&.! n.# o d n.n.n.n.",
"( J L n.] n.r.:...n.n.. e Z G Z n.n."
};
