/* XPM */
static char *_ae6ffce3d074d24bc2db1a2c24510c76Tk17mQy3nZtT5PK_8[] = {
/* columns rows colors chars-per-pixel */
"18 27 256 2 ",
"   c #2B1200",
".  c #331808",
"X  c #341C01",
"o  c #381F05",
"O  c #392212",
"+  c #3B2502",
"@  c #3E241F",
"#  c #402B14",
"$  c #412B1A",
"%  c #422C24",
"&  c #432B02",
"*  c #433219",
"=  c #453004",
"-  c #473121",
";  c #49341B",
":  c #4B3306",
">  c #4B340B",
",  c #4B3415",
"<  c #4B3D09",
"1  c #4C3423",
"2  c #4C3A24",
"3  c #4D3829",
"4  c #4F3732",
"5  c #4F400E",
"6  c #4F4126",
"7  c #503B33",
"8  c #523F1B",
"9  c #533A2B",
"0  c #533C12",
"q  c #533E23",
"w  c #544214",
"e  c #553816",
"r  c #55470B",
"t  c #574232",
"y  c #583A35",
"u  c #59442B",
"i  c #59481D",
"p  c #5B3E0D",
"a  c #5B4622",
"s  c #5C4414",
"d  c #5C4431",
"f  c #5C443B",
"g  c #5D4A34",
"h  c #5D511A",
"j  c #5F4D3E",
"k  c #61461A",
"l  c #614C34",
"z  c #62443B",
"x  c #644913",
"c  c #65450C",
"v  c #654A3A",
"b  c #654B1A",
"n  c #664B46",
"m  c #675549",
"M  c #68522A",
"N  c #695551",
"B  c #6A5A2E",
"V  c #6B4C1A",
"C  c #6C4C17",
"Z  c #6C5117",
"A  c #6D5323",
"S  c #6D5333",
"D  c #6D5B34",
"F  c #6D5B3B",
"G  c #6E5B4C",
"H  c #6F6067",
"J  c #714D13",
"K  c #715524",
"L  c #71584E",
"P  c #715E5B",
"I  c #725316",
"U  c #72572B",
"Y  c #73625A",
"T  c #746254",
"R  c #75571E",
"E  c #755F38",
"W  c #76591E",
"Q  c #765C2B",
"!  c #766C74",
"~  c #78653A",
"^  c #79591E",
"/  c #795B2B",
"(  c #7A6426",
")  c #7A6969",
"_  c #7B5C25",
"`  c #7B6749",
"'  c #7C6453",
"]  c #7C6859",
"[  c #7D6332",
"{  c #806843",
"}  c #815D1C",
"|  c #82632C",
" . c #846A34",
".. c #84725B",
"X. c #856525",
"o. c #856632",
"O. c #876E4C",
"+. c #88683B",
"@. c #8B6D3B",
"#. c #8C6B2D",
"$. c #8C7955",
"%. c #8D6C35",
"&. c #8D7036",
"*. c #8E713B",
"=. c #916E34",
"-. c #93754B",
";. c #937942",
":. c #94733B",
">. c #95793F",
",. c #987A5A",
"<. c #98816B",
"1. c #9A7638",
"2. c #9A7B4B",
"3. c #9B7B43",
"4. c #9C7642",
"5. c #9D844D",
"6. c #9D8671",
"7. c #9F8046",
"8. c #A17E3F",
"9. c #A18967",
"0. c #A27C44",
"q. c #A38651",
"w. c #A48345",
"e. c #A4834B",
"r. c #A48A58",
"t. c #A5884D",
"y. c #A58953",
"u. c #A67F48",
"i. c #A88256",
"p. c #AA873D",
"a. c #AA9576",
"s. c #AC8B48",
"d. c #AD8C52",
"f. c #AF9055",
"g. c #AF906B",
"h. c #B28C53",
"j. c #B28F4D",
"k. c #B39463",
"l. c #B3A174",
"z. c #B4945C",
"x. c #B5924E",
"c. c #B59352",
"v. c #B8954A",
"b. c #B99658",
"n. c #BA945C",
"m. c #BB9462",
"M. c #BB9A5C",
"N. c #BB9D75",
"B. c #BC9C64",
"V. c #BD9A54",
"C. c #C19C55",
"Z. c #C39D5A",
"A. c #C49E64",
"S. c #C5A264",
"D. c #C5A576",
"F. c #C6A35C",
"G. c #C99E60",
"H. c #C99F5E",
"J. c #CAA263",
"K. c #D1A864",
"L. c None",
"P. c black",
"I. c black",
"U. c black",
"Y. c black",
"T. c black",
"R. c black",
"E. c black",
"W. c black",
"Q. c black",
"!. c black",
"~. c black",
"^. c black",
"/. c black",
"(. c black",
"). c black",
"_. c black",
"`. c black",
"'. c black",
"]. c black",
"[. c black",
"{. c black",
"}. c black",
"|. c black",
" X c black",
".X c black",
"XX c black",
"oX c black",
"OX c black",
"+X c black",
"@X c black",
"#X c black",
"$X c black",
"%X c black",
"&X c black",
"*X c black",
"=X c black",
"-X c black",
";X c black",
":X c black",
">X c black",
",X c black",
"<X c black",
"1X c black",
"2X c black",
"3X c black",
"4X c black",
"5X c black",
"6X c black",
"7X c black",
"8X c black",
"9X c black",
"0X c black",
"qX c black",
"wX c black",
"eX c black",
"rX c black",
"tX c black",
"yX c black",
"uX c black",
"iX c black",
"pX c black",
"aX c black",
"sX c black",
"dX c black",
"fX c black",
"gX c black",
"hX c black",
"jX c black",
"kX c black",
"lX c black",
"zX c black",
"xX c black",
"cX c black",
"vX c black",
"bX c black",
"nX c black",
"mX c black",
"MX c black",
"NX c black",
"BX c black",
"VX c black",
"CX c black",
"ZX c black",
"AX c black",
"SX c black",
"DX c black",
"FX c black",
"GX c black",
"HX c black",
"JX c black",
"KX c black",
"LX c black",
"PX c black",
"IX c black",
"UX c black",
/* pixels */
"L.L.L.L.L.L.<.F M a w D ~ L.L.L.L.L.",
"L.L.L.L.L.~ M 0 0 0 = > a F L.L.L.L.",
"L.L.L.L.L.M Q Q / _ A s > 8 M L.L.L.",
"L.L.L.L.~ *.d.e.u.u.1.W p = w B L.L.",
"L.L.L.L.5.k.A.A.Z.Z.c.4.| < < h L.L.",
"L.L.L.l.l.A.S.H.G.G.A.M.d.s w 5 { L.",
"L.L.L.$.O.g.A.J.J.A.h.e.d.2.h r i L.",
"L.P P G F O.9.N.r.o.C c C O.` w i B ",
"L.N ] ] j t L L y 9 y 1 9 v ] d q M ",
"L.G Y j t 3 - @ - y v f z 7 j j t v ",
"L.Y G 6 ; 2 ' 2 ; 1 9 9 9 4 % j m z ",
"L.L.T 1 # ` g.~ X O - * * - v v v n ",
"L.L.a.{ S g.B.y.&   o o o D ,.O.- 9 ",
"L.D.A.n.A.A.A.M.7.+.K [ *.k.f.-./  .",
"L.S.S.Z.J.C.V.V.c.S.S.B.b.M.f.+.*.3.",
"L.S.S.V.A.b.p.v.s.F.K.F.V.b.s.} e.L.",
"L.B.z.s.s.7.X.1.w.v.F.C.V.c.8.X.f.L.",
"L.f.q.o.^ / I R 1.p.c.v.x.j.=.:.b.L.",
"L.-.-.R _ ( I c J #.e.f.d.e.o.%.L.L.",
"L.$.{ p @.d.5.:.| b [ q.t.*.W  .L.L.",
"L.L.i u [ e.h.y.*.V Z 2.@.b k L.L.L.",
"L.L.i l -.:.w.>.[  .Q [ b p M L.L.L.",
"L.L.E M g.u.u.:.;. .b x : , a L.L.L.",
"L.L.` M g.m.h.y.q.[ > = o ; L.L.L.L.",
"L.L.L.M -.0.i.7.-.b & . # F L.L.L.L.",
"L.L.P l -.3.3.&.U > o - ....L.L.L.L.",
"! H ) g o.0.1._ e + $ ' 6.] ] L.L.L."
};
