/* XPM */
static char *_ae6ffce3d074d24bc2db1a2c24510c76Tk17mQy3nZtT5PK_7[] = {
/* columns rows colors chars-per-pixel */
"18 27 256 2 ",
"   c #351709",
".  c #361B0D",
"X  c #3C2416",
"o  c #3F2A1C",
"O  c #412E02",
"+  c #433402",
"@  c #442A22",
"#  c #442C1B",
"$  c #462B29",
"%  c #482A0E",
"&  c #49350A",
"*  c #4A341B",
"=  c #4A3C04",
"-  c #4B3404",
";  c #4B3425",
":  c #4D3312",
">  c #4D3A12",
",  c #4E3E31",
"<  c #513B0A",
"1  c #513C32",
"2  c #523A2E",
"3  c #54393C",
"4  c #544134",
"5  c #553A17",
"6  c #59430B",
"7  c #59432C",
"8  c #5B3D32",
"9  c #5B3E24",
"0  c #5B4B20",
"q  c #5C443D",
"w  c #5C4714",
"e  c #5D4838",
"r  c #5E5025",
"t  c #5F4E29",
"y  c #603E22",
"u  c #624A1A",
"i  c #624A3C",
"p  c #634841",
"a  c #634B35",
"s  c #63534D",
"d  c #64451C",
"f  c #644828",
"g  c #665218",
"h  c #665551",
"j  c #674814",
"k  c #694A36",
"l  c #6A5449",
"z  c #6B4512",
"x  c #6B4C23",
"c  c #6B5627",
"v  c #6B5D34",
"b  c #6C5C5B",
"n  c #6D5733",
"m  c #6E5C38",
"M  c #6F5445",
"N  c #714F29",
"B  c #715E5C",
"V  c #724D1A",
"C  c #725737",
"Z  c #73625A",
"A  c #73716F",
"S  c #75582A",
"D  c #75591E",
"F  c #755D53",
"G  c #756569",
"H  c #77643B",
"J  c #796028",
"K  c #796454",
"L  c #7B6D86",
"P  c #7C5B24",
"I  c #7C5B3D",
"U  c #7C612C",
"Y  c #7C6B48",
"T  c #7E6743",
"R  c #806F69",
"E  c #815B1D",
"W  c #85633B",
"Q  c #857255",
"!  c #857370",
"~  c #866537",
"^  c #866B32",
"/  c #89653C",
"(  c #8A807A",
")  c #8B6B2D",
"_  c #8B6B3C",
"`  c #8C6B4B",
"'  c #8C6C43",
"]  c #8C703C",
"[  c #8E6A34",
"{  c #8E7454",
"}  c #8F672A",
"|  c #926D43",
" . c #926F4B",
".. c #936B34",
"X. c #946F3E",
"o. c #947244",
"O. c #957B4A",
"+. c #978585",
"@. c #987858",
"#. c #9A744A",
"$. c #9B753D",
"%. c #9B7841",
"&. c #9C7641",
"*. c #9C7C3A",
"=. c #9C845A",
"-. c #9C8744",
";. c #9F813C",
":. c #A07950",
">. c #A07A3E",
",. c #A27A4B",
"<. c #A4835C",
"1. c #A48444",
"2. c #A58354",
"3. c #A5854D",
"4. c #A68769",
"5. c #A8813A",
"6. c #A97F4C",
"7. c #AA8451",
"8. c #AA845A",
"9. c #AC844B",
"0. c #AC8C4C",
"q. c #AC8F63",
"w. c #AD8A53",
"e. c #AE9C7E",
"r. c #AF895D",
"t. c #B18B61",
"y. c #B3853B",
"u. c #B38D54",
"i. c #B3925D",
"p. c #B48E58",
"a. c #B4914C",
"s. c #B49666",
"d. c #B59576",
"f. c #B78B49",
"g. c #BA945A",
"h. c #BC9254",
"j. c #BC944D",
"k. c #BC9B64",
"l. c #BD995A",
"z. c #BD9B6C",
"x. c #BFA07D",
"c. c #C1955C",
"v. c #C19F6B",
"b. c #C39554",
"n. c #C39C5C",
"m. c #C39E62",
"M. c #C5A058",
"N. c #C5A26C",
"B. c #C79B61",
"V. c #C8A569",
"C. c #C8A678",
"Z. c #CA9A54",
"A. c #CB9C5B",
"S. c #CBA363",
"D. c #CCA25E",
"F. c #D0A25D",
"G. c #D3A870",
"H. c None",
"J. c black",
"K. c black",
"L. c black",
"P. c black",
"I. c black",
"U. c black",
"Y. c black",
"T. c black",
"R. c black",
"E. c black",
"W. c black",
"Q. c black",
"!. c black",
"~. c black",
"^. c black",
"/. c black",
"(. c black",
"). c black",
"_. c black",
"`. c black",
"'. c black",
"]. c black",
"[. c black",
"{. c black",
"}. c black",
"|. c black",
" X c black",
".X c black",
"XX c black",
"oX c black",
"OX c black",
"+X c black",
"@X c black",
"#X c black",
"$X c black",
"%X c black",
"&X c black",
"*X c black",
"=X c black",
"-X c black",
";X c black",
":X c black",
">X c black",
",X c black",
"<X c black",
"1X c black",
"2X c black",
"3X c black",
"4X c black",
"5X c black",
"6X c black",
"7X c black",
"8X c black",
"9X c black",
"0X c black",
"qX c black",
"wX c black",
"eX c black",
"rX c black",
"tX c black",
"yX c black",
"uX c black",
"iX c black",
"pX c black",
"aX c black",
"sX c black",
"dX c black",
"fX c black",
"gX c black",
"hX c black",
"jX c black",
"kX c black",
"lX c black",
"zX c black",
"xX c black",
"cX c black",
"vX c black",
"bX c black",
"nX c black",
"mX c black",
"MX c black",
"NX c black",
"BX c black",
"VX c black",
"CX c black",
"ZX c black",
"AX c black",
"SX c black",
"DX c black",
"FX c black",
"GX c black",
"HX c black",
"JX c black",
"KX c black",
"LX c black",
"PX c black",
"IX c black",
"UX c black",
/* pixels */
"H.H.H.H.H.{ Q H.r H.< H.H { H.H.H.H.",
"H.H.H.H.H.Y t & & > O + < H.m H.H.H.",
"H.H.H.H.H.f H.j x c j H.& > t H H.H.",
"H.H.H.H.T _ H.[ ..X.^ H.< - > H H.H.",
"H.H.H.O.o.w.h.f.y.w.H.~ H.< + 0 T H.",
"H.H.H.<.i.n.A.D.H.n.l.6.[ w = < g H.",
"H.H.e.q.k.m.H.D.S.S.l.l.l.] w w w v ",
"H.H.+.`  .r.v.V.V.H.7.7.3.-.U w < g ",
"H.G B F H.H.H.z.d.@.H.N N H H.c > n ",
"! b Z h H.i T { M a 8 9 8 a T Y H.t ",
"G G R H.4 1 ; @ o q p H.q 1 7 i e 7 ",
"H.B H.1 ; ; i $ o $ 2 4 4 3 $ ; K k ",
"H.Z l * # y 4.C . . o o o 1 $ p 7 e ",
"H.x.q.H.H.H.v.2.%   o X . ; H.H.k H.",
"H.C.v.s.r.m.M.h./ x 9 y H./ H.<.W  .",
"H.V.V.N.B.D.A.b.u.H.r.7.7.r.r.#.| #.",
"H.G.V.B.D.A.A.b.H.B.F.A.B.l.9.~ ,.H.",
"H.k.g.j.D.b.H.H.y.j.A.Z.Z.c.9.E p.H.",
"H.H.H.>.;.H.} ..5.y.j.j.j.a.;.P H.H.",
"H.=.o.P H.H.z H.$.5.f.a.a.0.*.H.H.H.",
"H.Q Y j ~ ) P V H.z ^ 3.1.-.U D H.H.",
"H.H.H.5 ~ u.w.&.~ j y *.-.J u c H.H.",
"H.H.2 f ' o.u.2.~ S j ] J 6 0 H.H.H.",
"H.H.l H.8.%.>.X./ | N S < & t H.H.H.",
"H.H.K H.t.g.9.,.2. .d : H., l H.H.H.",
"H.( F f #.w.0.7.:.I H.  X s H.H.H.H.",
"L G Z x | [ ..X.W 9 H.; K G A A H.H."
};
