/* XPM */
static char *_ae6ffce3d074d24bc2db1a2c24510c76Tk17mQy3nZtT5PK_9[] = {
/* columns rows colors chars-per-pixel */
"18 27 256 2 ",
"   c #321602",
".  c #321C01",
"X  c #352202",
"o  c #391D15",
"O  c #392301",
"+  c #3C2414",
"@  c #3D2A01",
"#  c #3F322D",
"$  c #422D01",
"%  c #422E1B",
"&  c #442817",
"*  c #473227",
"=  c #493504",
"-  c #49352A",
";  c #493908",
":  c #493919",
">  c #4C3C3A",
",  c #4D3515",
"<  c #4D3B13",
"1  c #4D3C2C",
"2  c #503D12",
"3  c #51371C",
"4  c #513A2C",
"5  c #523B00",
"6  c #533D35",
"7  c #543826",
"8  c #564212",
"9  c #57441B",
"0  c #584A28",
"q  c #5A3D02",
"w  c #5A4407",
"e  c #5A4549",
"r  c #5B432D",
"t  c #5B4434",
"y  c #5C4B13",
"u  c #5D4C41",
"i  c #5D5244",
"p  c #5E5324",
"a  c #624F48",
"s  c #634725",
"d  c #634E2C",
"f  c #644539",
"g  c #644935",
"h  c #644C44",
"j  c #644D1B",
"k  c #65532D",
"l  c #65551B",
"z  c #665217",
"x  c #69534A",
"c  c #696339",
"v  c #6A5835",
"b  c #6A5856",
"n  c #6B4A13",
"m  c #6B592D",
"M  c #6B6164",
"N  c #6D4D1B",
"B  c #6D5D5B",
"V  c #6E6B70",
"C  c #714E15",
"Z  c #715B49",
"A  c #725224",
"S  c #72642A",
"D  c #736441",
"F  c #74521E",
"G  c #755B3B",
"H  c #76571B",
"J  c #76625A",
"K  c #775A29",
"L  c #785E39",
"P  c #786338",
"I  c #795622",
"U  c #7A6561",
"Y  c #7A7168",
"T  c #7B6D3D",
"R  c #7D5D2A",
"E  c #7D5E24",
"W  c #7E6A43",
"Q  c #7F6021",
"!  c #7F634F",
"~  c #7F6952",
"^  c #83622C",
"/  c #846535",
"(  c #856125",
")  c #856A2B",
"_  c #856A37",
"`  c #867857",
"'  c #89662A",
"]  c #8B6B39",
"[  c #8B7568",
"{  c #8C6B33",
"}  c #8C6D42",
"|  c #8C7349",
" . c #8D713B",
".. c #927035",
"X. c #93732A",
"o. c #947B52",
"O. c #957541",
"+. c #957846",
"@. c #96753C",
"#. c #99753D",
"$. c #997F58",
"%. c #998666",
"&. c #9A845B",
"*. c #9B7A43",
"=. c #9B7C4C",
"-. c #9C7B33",
";. c #9D7A3D",
":. c #9E844F",
">. c #9F8141",
",. c #A07E45",
"<. c #A27E49",
"1. c #A4834C",
"2. c #A48554",
"3. c #A88965",
"4. c #A99475",
"5. c #AB8A44",
"6. c #AB8D4C",
"7. c #AC8B53",
"8. c #AC9564",
"9. c #AD8D3D",
"0. c #AE8D5A",
"q. c #B28F56",
"w. c #B28F5F",
"e. c #B3934C",
"r. c #B3A05C",
"t. c #B49263",
"y. c #B4935A",
"u. c #B49544",
"i. c #B59354",
"p. c #B59B56",
"a. c #B89967",
"s. c #B9955D",
"d. c #B99A45",
"f. c #BAA458",
"g. c #BB9B62",
"h. c #BC9B4C",
"j. c #BCA578",
"k. c #BE9D56",
"l. c #BE9D5B",
"z. c #BEB06E",
"x. c #BFA24C",
"c. c #C19F6C",
"v. c #C3A35B",
"b. c #C3A364",
"n. c #C3A453",
"m. c #C3B46E",
"M. c #C4A36A",
"N. c #C7A95B",
"B. c #C9A764",
"V. c #CCA96D",
"C. c #CDA66B",
"Z. c None",
"A. c black",
"S. c black",
"D. c black",
"F. c black",
"G. c black",
"H. c black",
"J. c black",
"K. c black",
"L. c black",
"P. c black",
"I. c black",
"U. c black",
"Y. c black",
"T. c black",
"R. c black",
"E. c black",
"W. c black",
"Q. c black",
"!. c black",
"~. c black",
"^. c black",
"/. c black",
"(. c black",
"). c black",
"_. c black",
"`. c black",
"'. c black",
"]. c black",
"[. c black",
"{. c black",
"}. c black",
"|. c black",
" X c black",
".X c black",
"XX c black",
"oX c black",
"OX c black",
"+X c black",
"@X c black",
"#X c black",
"$X c black",
"%X c black",
"&X c black",
"*X c black",
"=X c black",
"-X c black",
";X c black",
":X c black",
">X c black",
",X c black",
"<X c black",
"1X c black",
"2X c black",
"3X c black",
"4X c black",
"5X c black",
"6X c black",
"7X c black",
"8X c black",
"9X c black",
"0X c black",
"qX c black",
"wX c black",
"eX c black",
"rX c black",
"tX c black",
"yX c black",
"uX c black",
"iX c black",
"pX c black",
"aX c black",
"sX c black",
"dX c black",
"fX c black",
"gX c black",
"hX c black",
"jX c black",
"kX c black",
"lX c black",
"zX c black",
"xX c black",
"cX c black",
"vX c black",
"bX c black",
"nX c black",
"mX c black",
"MX c black",
"NX c black",
"BX c black",
"VX c black",
"CX c black",
"ZX c black",
"AX c black",
"SX c black",
"DX c black",
"FX c black",
"GX c black",
"HX c black",
"JX c black",
"KX c black",
"LX c black",
"PX c black",
"IX c black",
"UX c black",
/* pixels */
"Z.Z.Z.Z.Z.Z.D m p 0 k c D Z.Z.Z.Z.Z.",
"Z.Z.Z.Z.Z.D k 8 2 2 , ; 9 S Z.Z.Z.Z.",
"Z.Z.Z.Z.| m P R ^ ^ A 8 , 8 m Z.Z.Z.",
"Z.Z.Z.Z.| +.w.q.q.7.+.R q = p S Z.Z.",
"Z.Z.Z.Z.0.g.b.B.v.l.i.1.E q 2 m Z.Z.",
"Z.Z.Z.4.8.c.B.B.C.V.M.g.y.N w y Z.Z.",
"Z.Z.Z.U ! 2.c.M.c.0.O./ =.=.z 9 p Z.",
"Z.b B J h G $.3.W d 7 = 9 W T 9 p Z.",
"Z.b U [ x 4 6 3 % t t 6 6 > Z 0 0 c ",
"Z.J B a 6 4 t & - u u t e > > i 0 p ",
"Z.U B 6 & v &.s % - - * - # 1 i i 1 ",
"Z.Z.~ 9 = :.c.+.  o + + + g ` v 1 t ",
"Z.Z.j.:.=.l.v.s.L & & 3 g | 2.W : r ",
"Z.z.f.p.b.v.k.l.p.s.q.7.s.g.s.] ] #.",
"Z.m.f.f.v.k.6.k.i.v.N.v.v.k.6.( ;.,.",
"Z.z.r.e.p.6.' ,.6.v.N.n.n.h.>.' 7.Z.",
"Z.8.6.@.) ' I / 1.h.x.x.x.d.@.O.q.Z.",
"Z.&.:.E N F N A ] >.u.d.d.9.( ,.Z.Z.",
"Z.o.o.n ..2. .K F H X.5.9.-.E ,.Z.Z.",
"Z.Z.W q R w.t.0.} n H 6.#.Q C Z.Z.Z.",
"Z.Z.s j _ O.7.*.^ Q S +.l 9 k Z.Z.Z.",
"Z.Z.G v 7.O.2.O.{  .m m < : G Z.Z.Z.",
"Z.Z.D v a.q.7.1.7._ 8 = @ 2 c Z.Z.Z.",
"Z.Z.Z.g =.0.s.y.,.m $ . . d Z.Z.Z.Z.",
"Z.Z.Z.g  .@.<.*.E 8 @ X g Z.Z.Z.Z.Z.",
"Z.Z.U h | ,.*.' n $ . k [ [ Z.Z.Z.Z.",
"V M J f K @.{ C 5 O d %.4.U Y Z.Z.Z."
};
