/* XPM */
static char *_ae6ffce3d074d24bc2db1a2c24510c76Tk17mQy3nZtT5PK_11[] = {
/* columns rows colors chars-per-pixel */
"18 27 256 2 ",
"   c #2D1A00",
".  c #321C01",
"X  c #342200",
"o  c #392500",
"O  c #3C2514",
"+  c #3D241C",
"@  c #3D2B02",
"#  c #422716",
"$  c #42351E",
"%  c #43260C",
"&  c #432C29",
"*  c #442D1B",
"=  c #45330B",
"-  c #45390C",
";  c #483704",
":  c #4B3837",
">  c #4B3B29",
",  c #4B3C11",
"<  c #4B3D32",
"1  c #4B4329",
"2  c #4C3523",
"3  c #4C390B",
"4  c #4C3B06",
"5  c #4D4135",
"6  c #504106",
"7  c #513D11",
"8  c #52410B",
"9  c #53421A",
"0  c #54493A",
"q  c #553C2C",
"w  c #574726",
"e  c #594B1D",
"r  c #5A4819",
"t  c #5A4C3D",
"y  c #5B450E",
"u  c #5B461D",
"i  c #5B4C20",
"p  c #5C4232",
"a  c #5D4912",
"s  c #5E5037",
"d  c #5E5145",
"f  c #625243",
"g  c #62542D",
"h  c #625654",
"j  c #634B29",
"k  c #644B38",
"l  c #64511D",
"z  c #654E16",
"x  c #655D35",
"c  c #665327",
"v  c #66543A",
"b  c #675A53",
"n  c #694A0B",
"m  c #695242",
"M  c #6A5B5C",
"N  c #6C5625",
"B  c #6C582A",
"V  c #6C5C34",
"C  c #6D5B3B",
"Z  c #6E5921",
"A  c #6E5B47",
"S  c #6E6055",
"D  c #6E615B",
"F  c #6E6644",
"G  c #71551B",
"H  c #725934",
"J  c #736347",
"K  c #74663C",
"L  c #755E24",
"P  c #766A5C",
"I  c #775B49",
"U  c #77611E",
"Y  c #77622B",
"T  c #776B63",
"R  c #786637",
"E  c #7A581C",
"W  c #7C6C44",
"Q  c #7D631C",
"!  c #7D6324",
"~  c #806E43",
"^  c #82744D",
"/  c #82756E",
"(  c #83652B",
")  c #836B34",
"_  c #83777D",
"`  c #85692C",
"'  c #866E49",
"]  c #86755A",
"[  c #896A2C",
"{  c #8B6D33",
"}  c #8B732B",
"|  c #8C7535",
" . c #8C7645",
".. c #8D723B",
"X. c #8D745C",
"o. c #8D7B4B",
"O. c #8E7B54",
"+. c #91763F",
"@. c #927A52",
"#. c #937D4C",
"$. c #938252",
"%. c #947C39",
"&. c #948458",
"*. c #957933",
"=. c #957A34",
"-. c #977E42",
";. c #988762",
":. c #997C3A",
">. c #9B8135",
",. c #9B8353",
"<. c #9C7E44",
"1. c #9D834C",
"2. c #9D8443",
"3. c #9D885D",
"4. c #A08752",
"5. c #A28345",
"6. c #A2883A",
"7. c #A38A4B",
"8. c #A48E5D",
"9. c #A58D55",
"0. c #A6864B",
"q. c #A78C45",
"w. c #A98E45",
"e. c #AA8A4C",
"r. c #AA8C53",
"t. c #AA9578",
"y. c #AB9154",
"u. c #AB9244",
"i. c #AC8E58",
"p. c #AD914C",
"a. c #AD9363",
"s. c #AF995C",
"d. c #B19545",
"f. c #B19552",
"g. c #B2974B",
"h. c #B2984F",
"j. c #B2A26C",
"k. c #B2A576",
"l. c #B59955",
"z. c #B6985D",
"x. c #B79B68",
"c. c #B89C4B",
"v. c #B99C54",
"b. c #BC9C5B",
"n. c #BCA154",
"m. c #BCA56B",
"M. c #BDA25B",
"N. c #BEA363",
"B. c #C1A45B",
"V. c #C2A656",
"C. c #C4A663",
"Z. c #C4A975",
"A. c #C4AA64",
"S. c #C5A95D",
"D. c #C6AC6B",
"F. c #D1B475",
"G. c None",
"H. c black",
"J. c black",
"K. c black",
"L. c black",
"P. c black",
"I. c black",
"U. c black",
"Y. c black",
"T. c black",
"R. c black",
"E. c black",
"W. c black",
"Q. c black",
"!. c black",
"~. c black",
"^. c black",
"/. c black",
"(. c black",
"). c black",
"_. c black",
"`. c black",
"'. c black",
"]. c black",
"[. c black",
"{. c black",
"}. c black",
"|. c black",
" X c black",
".X c black",
"XX c black",
"oX c black",
"OX c black",
"+X c black",
"@X c black",
"#X c black",
"$X c black",
"%X c black",
"&X c black",
"*X c black",
"=X c black",
"-X c black",
";X c black",
":X c black",
">X c black",
",X c black",
"<X c black",
"1X c black",
"2X c black",
"3X c black",
"4X c black",
"5X c black",
"6X c black",
"7X c black",
"8X c black",
"9X c black",
"0X c black",
"qX c black",
"wX c black",
"eX c black",
"rX c black",
"tX c black",
"yX c black",
"uX c black",
"iX c black",
"pX c black",
"aX c black",
"sX c black",
"dX c black",
"fX c black",
"gX c black",
"hX c black",
"jX c black",
"kX c black",
"lX c black",
"zX c black",
"xX c black",
"cX c black",
"vX c black",
"bX c black",
"nX c black",
"mX c black",
"MX c black",
"NX c black",
"BX c black",
"VX c black",
"CX c black",
"ZX c black",
"AX c black",
"SX c black",
"DX c black",
"FX c black",
"GX c black",
"HX c black",
"JX c black",
"KX c black",
"LX c black",
"PX c black",
"IX c black",
"UX c black",
/* pixels */
"G.G.G.G.G.G.W 9 K V C g F G.G.G.G.G.",
"G.G.G.G.G.o.V 7 ; ; 3 w x G.G.G.G.G.",
"G.G.G.G.G.H z c N l y 4 , i G.G.G.G.",
"G.G.G.G.Y ) -.%.-.%.Y y - - c &.G.G.",
"G.G.G.G.%.p.M.z.f.p.2.! 8 ; 9 R G.G.",
"G.G.G.k.j.C.C.C.M.N.N.y.) 6 r r G.G.",
"G.G.G.] O.s.B.C.x.8.,.,.8.Y i 6 g G.",
"G.D D D A @.a.a.^ v 9 u v O.V 6 e G.",
"G.h T / d t m p > 0 q < > S J 9 w K ",
"G.h D b 0 > < * > f t t : : p s w v ",
"G.M S 5 $ v ] * $ 5 > : : & < k q p ",
"G.G.F 1 , 8.a.u X + + # * p I p 2 q ",
"G.G.j.^  .m.b.<.; % O * j @.3.C * w ",
"G.G.N.b.A.B.v.l.y.1.-.<.r.y.4.Z L ..",
"G.F.D.B.S.B.b.p.n.B.B.M.v.d.>.! %.>.",
"G.Z.N.v.b.q.:.w.g.V.S.V.c.d.| { 2.G.",
"G.j.s.<...{ Q *.f.n.V.n.c.u.` %.w.G.",
"G.8.,.( G E n L =.w.v.v.d.6.! e.G.G.",
"G.^ ^ Z %.-.( E G ` w.h.q.} U 7.G.G.",
"G.G.K 9 [ z.f.5.! n +.e.%.L z G.G.G.",
"G.G.x i ) <.e.<.! U { | z a V G.G.G.",
"G.G.x g 9.:.0.=.+...L N r ; 9 G.G.G.",
"G.G.G.g x.z.i.9.4.) 8 ; @ w K G.G.G.",
"G.G.G.g 8.s.z.8.#.B @ X   g G.G.G.G.",
"G.G.G.t ' #.,. .H 7 X X s O.G.G.G.G.",
"G.G.P t ^ $.o.R 9 o . v ;.X.G.G.G.G.",
"_ M D f v ~ R u = . w ;.t.A T G.G.G."
};
