/* XPM */
static char *_ae6ffce3d074d24bc2db1a2c24510c76Tk17mQy3nZtT5PK_13[] = {
/* columns rows colors chars-per-pixel */
"18 27 256 2 ",
"   c #2D1B01",
".  c #311D01",
"X  c #321400",
"o  c #342400",
"O  c #3A2513",
"+  c #3B2C0B",
"@  c #3C2C02",
"#  c #3D2A16",
"$  c #3F3909",
"%  c #412A14",
"&  c #423502",
"*  c #442F1C",
"=  c #443207",
"-  c #443B03",
";  c #453D0B",
":  c #463322",
">  c #483717",
",  c #493D02",
"<  c #4A3E0B",
"1  c #4B3426",
"2  c #4B3A24",
"3  c #4B3B1C",
"4  c #4C3A2D",
"5  c #4C4103",
"6  c #4D4516",
"7  c #4E430A",
"8  c #4E4322",
"9  c #513C2B",
"0  c #524A16",
"q  c #54442D",
"w  c #554526",
"e  c #564433",
"r  c #564907",
"t  c #564A28",
"y  c #574845",
"u  c #5A4625",
"i  c #5B4936",
"p  c #5B4E1B",
"a  c #5C4E24",
"s  c #5C541B",
"d  c #5D4D15",
"f  c #5D4F2F",
"g  c #5E490C",
"h  c #614E48",
"j  c #624C0B",
"k  c #624E3A",
"l  c #645112",
"z  c #65543D",
"x  c #655729",
"c  c #664F29",
"v  c #676339",
"b  c #684A6D",
"n  c #695737",
"m  c #6A5313",
"M  c #6A591B",
"N  c #6A6444",
"B  c #6A6538",
"V  c #6B4F20",
"C  c #6B6128",
"Z  c #6C5E24",
"A  c #6C6555",
"S  c #6F5864",
"D  c #6F5D4A",
"F  c #6F6962",
"G  c #715D2A",
"H  c #735725",
"J  c #73572E",
"K  c #735B1B",
"L  c #736124",
"P  c #73653B",
"I  c #74621F",
"U  c #776739",
"Y  c #78746D",
"T  c #795D79",
"R  c #796529",
"E  c #796748",
"W  c #7A5E21",
"Q  c #7A646C",
"!  c #7B6B3B",
"~  c #7B723E",
"^  c #7C601E",
"/  c #7C6B33",
"(  c #7C7443",
")  c #7E6C54",
"_  c #7E785C",
"`  c #816E31",
"'  c #81713A",
"]  c #817243",
"[  c #82692A",
"{  c #868266",
"}  c #878151",
"|  c #88785A",
" . c #897433",
".. c #8A6E36",
"X. c #8B7A47",
"o. c #8D7B59",
"O. c #8E7D3A",
"+. c #907D5D",
"@. c #908152",
"#. c #927B45",
"$. c #927C3B",
"%. c #93753B",
"&. c #93834B",
"*. c #948342",
"=. c #95823C",
"-. c #958859",
";. c #9A7C43",
":. c #9A7E3C",
">. c #9A8762",
",. c #9C8343",
"<. c #9C8B47",
"1. c #9D813D",
"2. c #9E844D",
"3. c #A08246",
"4. c #A3854B",
"5. c #A49354",
"6. c #A58C6E",
"7. c #A68B49",
"8. c #A68C51",
"9. c #A6935A",
"0. c #A6944F",
"q. c #A69765",
"w. c #A98C54",
"e. c #A98F46",
"r. c #AA8F4E",
"t. c #AC995C",
"y. c #AD934B",
"u. c #AD9A56",
"i. c #AF945A",
"p. c #AFA05F",
"a. c #B2954D",
"s. c #B2955B",
"d. c #B29753",
"f. c #B3A463",
"g. c #B59A4F",
"h. c #B69A52",
"j. c #B69B5A",
"k. c #B7A45A",
"l. c #B89F4C",
"z. c #B99B5B",
"x. c #B99B61",
"c. c #BA9954",
"v. c #BBA46A",
"b. c #BCA35B",
"n. c #BCA563",
"m. c #BCA963",
"M. c #BDA454",
"N. c #BEA77A",
"B. c #C19F54",
"V. c #C2AA57",
"C. c #C3A459",
"Z. c #C3A562",
"A. c #C3A572",
"S. c #C4AB64",
"D. c #C4AC6A",
"F. c #C5AC5C",
"G. c #C6AC78",
"H. c #C9A662",
"J. c #CAB473",
"K. c #CAB47C",
"L. c #CBAE69",
"P. c #CDAB62",
"I. c #CDB064",
"U. c #CFB189",
"Y. c #D0B27A",
"T. c #D1AE64",
"R. c None",
"E. c black",
"W. c black",
"Q. c black",
"!. c black",
"~. c black",
"^. c black",
"/. c black",
"(. c black",
"). c black",
"_. c black",
"`. c black",
"'. c black",
"]. c black",
"[. c black",
"{. c black",
"}. c black",
"|. c black",
" X c black",
".X c black",
"XX c black",
"oX c black",
"OX c black",
"+X c black",
"@X c black",
"#X c black",
"$X c black",
"%X c black",
"&X c black",
"*X c black",
"=X c black",
"-X c black",
";X c black",
":X c black",
">X c black",
",X c black",
"<X c black",
"1X c black",
"2X c black",
"3X c black",
"4X c black",
"5X c black",
"6X c black",
"7X c black",
"8X c black",
"9X c black",
"0X c black",
"qX c black",
"wX c black",
"eX c black",
"rX c black",
"tX c black",
"yX c black",
"uX c black",
"iX c black",
"pX c black",
"aX c black",
"sX c black",
"dX c black",
"fX c black",
"gX c black",
"hX c black",
"jX c black",
"kX c black",
"lX c black",
"zX c black",
"xX c black",
"cX c black",
"vX c black",
"bX c black",
"nX c black",
"mX c black",
"MX c black",
"NX c black",
"BX c black",
"VX c black",
"CX c black",
"ZX c black",
"AX c black",
"SX c black",
"DX c black",
"FX c black",
"GX c black",
"HX c black",
"JX c black",
"KX c black",
"LX c black",
"PX c black",
"IX c black",
"UX c black",
/* pixels */
"R.R.R.R.R.R.B 6 x x x s P R.R.R.R.R.",
"R.R.R.R.R.( x < - - ; 6 C } R.R.R.R.",
"R.R.R.R.U s p r d d , - , C ~ R.R.R.",
"R.R.R.R.L '  . . . .M 7 & $ x } R.R.",
"R.R.R.@.#.t.p.u.u.0.$.M 5 - < P R.R.",
"R.R.R.N.N.n.S.S.n.n.u.<.I r r 0 R.R.",
"R.R.R.>.9.v.S.D.J.D.t.p.5.x p 5 a R.",
"R.R.Q E | q.v.N.q.X.U P ] -.Z 7 6 R.",
"R.S Q S h ) >.+.i q e 9 e | ] 0 0 x ",
"R.b Q S y 9 4 : 1 k i i 2 i P f 3 t ",
"R.T Q y 4 9 e * 1 i q q 2 : 8 z 3 8 ",
"R.T S : * +.o.O % : : # : 2 k f i 2 ",
"R.R.| u J A.x.c X # % o * E | D % w ",
"R.U.G.z.c.H.B.a.J c g V ! 4.w.W H [ ",
"R.Y.L.T.T.P.C.c.Z.x.j.s.j.a.7.[ %.2.",
"R.K.D.L.H.B.B.h.b.I.L.Z.b.h.1.[ 7.R.",
"R.K.m.z.d.,.$.r.g.F.F.V.M.d...%.s.R.",
"R.f.9.O.[ R K %.a.M.V.M.l.s...,.d.R.",
"R.-.&.I Z M j m ` e.h.h.a.8.^ ;.R.R.",
"R.| ] l &.<.O.R l K 3.y.e.%.W 8.R.R.",
"R.R.v t ' j.x.i./ j  .<.R M G R.R.R.",
"R.R.f n X.*.r.2.R `  .' d 5 G R.R.R.",
"R.R.N n q.2.8.;.,.] M r & 3 f R.R.R.",
"R.R.R.n t.k.d.r.,.Z , @   8 R.R.R.R.",
"R.R.R.x &.8.7.4.' p @ . * A R.R.R.R.",
"R.R.A f X.=.:.%.c = . > ] { R.R.R.R.",
"Y F A a / ,.$.^ 9 o + X.6._ Y R.R.R."
};
