/* XPM */
static char *_ae6ffce3d074d24bc2db1a2c24510c76Tk17mQy3nZtT5PK_10[] = {
/* columns rows colors chars-per-pixel */
"18 27 256 2 ",
"   c #331C00",
".  c #342400",
"X  c #38180C",
"o  c #3A2503",
"O  c #3C1F1B",
"+  c #3C2B01",
"@  c #3F3116",
"#  c #422212",
"$  c #43221B",
"%  c #442E0C",
"&  c #443301",
"*  c #452E14",
"=  c #462C1D",
"-  c #473610",
";  c #4B2B26",
":  c #4B3B02",
">  c #4C3A17",
",  c #4C4126",
"<  c #4D331C",
"1  c #4D3D0A",
"2  c #4F352A",
"3  c #4F4300",
"4  c #523213",
"5  c #52361D",
"6  c #523D24",
"7  c #53342B",
"8  c #534214",
"9  c #543737",
"0  c #543E07",
"q  c #544322",
"w  c #55440C",
"e  c #563830",
"r  c #563C11",
"t  c #593E2E",
"y  c #59450A",
"u  c #5A3E25",
"i  c #5A482A",
"p  c #5B3D34",
"a  c #5B4718",
"s  c #5B4B1D",
"d  c #5B4C33",
"f  c #5D5023",
"g  c #5E522B",
"h  c #5F4324",
"j  c #624727",
"k  c #624D1A",
"l  c #624D23",
"z  c #634838",
"x  c #635142",
"c  c #644B0C",
"v  c #664A44",
"b  c #66522B",
"n  c #665423",
"m  c #684C06",
"M  c #685659",
"N  c #695A45",
"B  c #6A5827",
"V  c #6A5A35",
"C  c #6B4E0C",
"Z  c #6B4E3C",
"A  c #6C5414",
"S  c #6C5C2C",
"D  c #6D583B",
"F  c #6D5B63",
"G  c #6D5C53",
"H  c #6E5142",
"J  c #6E6329",
"K  c #715E34",
"L  c #735617",
"P  c #735B1D",
"I  c #735C50",
"U  c #755B3D",
"Y  c #75633B",
"T  c #765B26",
"R  c #766146",
"E  c #766463",
"W  c #786659",
"Q  c #786867",
"!  c #795C1D",
"~  c #79664A",
"^  c #7A6428",
"/  c #7B611B",
"(  c #7B6B41",
")  c #7C6327",
"_  c #7C7172",
"`  c #7D6832",
"'  c #7D6C3C",
"]  c #7F7154",
"[  c #7F724C",
"{  c #816927",
"}  c #836E36",
"|  c #846628",
" . c #846A29",
".. c #857559",
"X. c #876D42",
"o. c #877948",
"O. c #88702F",
"+. c #897342",
"@. c #8C7251",
"#. c #8C7333",
"$. c #8C733D",
"%. c #8C764A",
"&. c #8F796A",
"*. c #91723B",
"=. c #92752F",
"-. c #937B43",
";. c #937C49",
":. c #957C3D",
">. c #967935",
",. c #977A45",
"<. c #988259",
"1. c #988766",
"2. c #997E51",
"3. c #998974",
"4. c #9B7D3D",
"5. c #9B823E",
"6. c #9D8445",
"7. c #9E824F",
"8. c #A28543",
"9. c #A38A4A",
"0. c #A4823C",
"q. c #A48B61",
"w. c #A48C52",
"e. c #A58A45",
"r. c #A7874A",
"t. c #AA8542",
"y. c #AA8B44",
"u. c #AA8D55",
"i. c #AB8B4D",
"p. c #AC934D",
"a. c #AC9975",
"s. c #AD9458",
"d. c #B28B48",
"f. c #B29653",
"g. c #B3955A",
"h. c #B49A5B",
"j. c #B49C6C",
"k. c #B59A55",
"l. c #B6986A",
"z. c #B69B73",
"x. c #B89754",
"c. c #BA984F",
"v. c #BB9A52",
"b. c #BB9C5B",
"n. c #BB9E63",
"m. c #BCA36B",
"M. c #BDA357",
"N. c #BDA35C",
"B. c #BDA364",
"V. c #C1A573",
"C. c #C29F5B",
"Z. c #C3A35C",
"A. c #C3A363",
"S. c #C3A56A",
"D. c #C5A96B",
"F. c #C6A860",
"G. c #C9A566",
"H. c None",
"J. c black",
"K. c black",
"L. c black",
"P. c black",
"I. c black",
"U. c black",
"Y. c black",
"T. c black",
"R. c black",
"E. c black",
"W. c black",
"Q. c black",
"!. c black",
"~. c black",
"^. c black",
"/. c black",
"(. c black",
"). c black",
"_. c black",
"`. c black",
"'. c black",
"]. c black",
"[. c black",
"{. c black",
"}. c black",
"|. c black",
" X c black",
".X c black",
"XX c black",
"oX c black",
"OX c black",
"+X c black",
"@X c black",
"#X c black",
"$X c black",
"%X c black",
"&X c black",
"*X c black",
"=X c black",
"-X c black",
";X c black",
":X c black",
">X c black",
",X c black",
"<X c black",
"1X c black",
"2X c black",
"3X c black",
"4X c black",
"5X c black",
"6X c black",
"7X c black",
"8X c black",
"9X c black",
"0X c black",
"qX c black",
"wX c black",
"eX c black",
"rX c black",
"tX c black",
"yX c black",
"uX c black",
"iX c black",
"pX c black",
"aX c black",
"sX c black",
"dX c black",
"fX c black",
"gX c black",
"hX c black",
"jX c black",
"kX c black",
"lX c black",
"zX c black",
"xX c black",
"cX c black",
"vX c black",
"bX c black",
"nX c black",
"mX c black",
"MX c black",
"NX c black",
"BX c black",
"VX c black",
"CX c black",
"ZX c black",
"AX c black",
"SX c black",
"DX c black",
"FX c black",
"GX c black",
"HX c black",
"JX c black",
"KX c black",
"LX c black",
"PX c black",
"IX c black",
"UX c black",
/* pixels */
"H.H.H.H.H.H.~ Y B n f K k H.H.H.H.H.",
"H.H.H.H.H.[ b w 0 : - 1 a ` H.H.H.H.",
"H.H.H.H.H.n P ^ ^ T S 1 : k Y H.H.H.",
"H.H.H.H.` +.u.w.u.8.:.P 0 & f ' H.H.",
"H.H.H.H.w.h.N.M.B.h.s.4.P 3 : ` H.H.",
"H.H.H.a.a.m.A.F.D.B.n.B.u.s y a H.H.",
"H.H.H.~ @.q.m.D.V.u.*.} 2.;.n 8 b H.",
"H.M F W Z R q.q.X.B r r s ..~ 6 d H.",
"H.M Q ..N 7 e 2 5 h p t e t W t d ] ",
"H.F W x q 6 t # 7 z v z p ; 9 x i U ",
"H.E G q @ V <.u = 7 e ; 7 ; 7 H z i ",
"H.H.] q > q.m.X.X X # O $ j ~ D t z ",
"H.H.z.<.2.n.S.g.b * * 4 b ;.w.( < j ",
"H.H.m.C.G.Z.Z.Z.B.g.9.u.u.h.u. .) $.",
"H.D.S.Z.G.C.c.v.x.F.Z.N.N.k.9. .:.5.",
"H.D.B.x.x.y.#.t.i.b.N.N.N.k.5.O.e.H.",
"H.j.s.4.#.O.!  .r.c.N.b.b.f.=.:.f.H.",
"H.w.6.! A L c c  .8.f.f.f.8.| 8.H.H.",
"H.o.o.m $.6.#.) C ! :.e.e.=.T 8.H.H.",
"H.H.J 0 ` p.f.i.#.c P e.:.{ A H.H.H.",
"H.H.f l  .>.0.6./ ^ ) -.B a n H.H.H.",
"H.H.D l u.4.t.4.$.$.P P w & & H.H.H.",
"H.H.R b l.x.d.8.w.} a : o , V H.H.H.",
"H.H.H.b 7.g.f.s.;.B > .   g H.H.H.H.",
"H.H.H.g %.,.4.;.Y q + . g H.H.H.H.H.",
"H.H.E d +.;.*.' b %   b &.] H.H.H.H.",
"_ F Q x S +.{ a % o d 1.3.R I H.H.H."
};
