/* XPM */
static char *_ae6ffce3d074d24bc2db1a2c24510c76Tk17mQy3nZtT5PK_12[] = {
/* columns rows colors chars-per-pixel */
"18 27 256 2 ",
"   c #2D1C00",
".  c #2D2000",
"X  c #322302",
"o  c #332209",
"O  c #351B08",
"+  c #351C13",
"@  c #352C04",
"#  c #3A250A",
"$  c #3D251E",
"%  c #3D2713",
"&  c #3D2D0B",
"*  c #3F2624",
"=  c #422B0E",
"-  c #422B23",
";  c #423404",
":  c #43380C",
">  c #443513",
",  c #443A03",
"<  c #463125",
"1  c #482C23",
"2  c #483829",
"3  c #4A3325",
"4  c #4A3C07",
"5  c #4B3209",
"6  c #4B3C25",
"7  c #4B3E14",
"8  c #4C392C",
"9  c #4C3C1B",
"0  c #4D3232",
"q  c #4D4212",
"w  c #4E4027",
"e  c #4E4319",
"r  c #52372C",
"t  c #523A2C",
"y  c #52451B",
"u  c #534112",
"i  c #534432",
"p  c #543B34",
"a  c #54442D",
"s  c #554914",
"d  c #564321",
"f  c #583F13",
"g  c #594829",
"h  c #5A4740",
"j  c #5B413D",
"k  c #5B4939",
"l  c #5B4C22",
"z  c #5B4E1E",
"x  c #5D5729",
"c  c #5E511C",
"v  c #5F5138",
"b  c #60463F",
"n  c #614D29",
"m  c #624A48",
"M  c #634E13",
"N  c #63543B",
"B  c #635621",
"V  c #645825",
"C  c #654E0A",
"Z  c #67500D",
"A  c #675835",
"S  c #685555",
"D  c #695A43",
"F  c #6A5A5A",
"G  c #6A5B2C",
"H  c #6B552D",
"J  c #6B5B23",
"K  c #6B6668",
"L  c #6D550E",
"P  c #6E612C",
"I  c #6E6352",
"U  c #735B35",
"Y  c #735E16",
"T  c #736345",
"R  c #736637",
"E  c #745C1C",
"W  c #746224",
"Q  c #74663C",
"!  c #756529",
"~  c #756758",
"^  c #756869",
"/  c #76747E",
"(  c #786A4B",
")  c #796828",
"_  c #7A621C",
"`  c #7A6422",
"'  c #7A6662",
"]  c #7B5D2E",
"[  c #7C6938",
"{  c #7D6935",
"}  c #7D7444",
"|  c #7F6E61",
" . c #806921",
".. c #83744A",
"X. c #846F32",
"o. c #847444",
"O. c #85756B",
"+. c #877639",
"@. c #89732A",
"#. c #8A6F44",
"$. c #8A7D5B",
"%. c #8C7536",
"&. c #8D7646",
"*. c #8F855D",
"=. c #92855A",
"-. c #937B36",
";. c #947B43",
":. c #947D3B",
">. c #947E4C",
",. c #948356",
"<. c #95783C",
"1. c #978442",
"2. c #997B43",
"3. c #9B8753",
"4. c #9C8443",
"5. c #9C853C",
"6. c #9C854E",
"7. c #9C883F",
"8. c #9D8B48",
"9. c #9D8C5A",
"0. c #9E8F60",
"q. c #A38B3E",
"w. c #A38C54",
"e. c #A39363",
"r. c #A48C43",
"t. c #A58D4A",
"y. c #A58D58",
"u. c #A5935C",
"i. c #A6996A",
"p. c #A98E49",
"a. c #A99143",
"s. c #AB924C",
"d. c #AB955E",
"f. c #AB9858",
"g. c #AB9A64",
"h. c #AD9352",
"j. c #AE984E",
"k. c #AEA682",
"l. c #B18F49",
"z. c #B2944A",
"x. c #B29653",
"c. c #B39B56",
"v. c #B49F65",
"b. c #B5A74C",
"n. c #B69B4E",
"m. c #B6A255",
"M. c #B7A266",
"N. c #B89F5B",
"B. c #BA9E56",
"V. c #BAA479",
"C. c #BBA35C",
"Z. c #BBA362",
"A. c #BCAB65",
"S. c #C1A05A",
"D. c #C1A155",
"F. c #C1A662",
"G. c #C2AA5C",
"H. c #C3AA64",
"J. c #C4AD6B",
"K. c #C8A75A",
"L. c #C8AF6A",
"P. c #CBAC60",
"I. c #CCB474",
"U. c None",
"Y. c black",
"T. c black",
"R. c black",
"E. c black",
"W. c black",
"Q. c black",
"!. c black",
"~. c black",
"^. c black",
"/. c black",
"(. c black",
"). c black",
"_. c black",
"`. c black",
"'. c black",
"]. c black",
"[. c black",
"{. c black",
"}. c black",
"|. c black",
" X c black",
".X c black",
"XX c black",
"oX c black",
"OX c black",
"+X c black",
"@X c black",
"#X c black",
"$X c black",
"%X c black",
"&X c black",
"*X c black",
"=X c black",
"-X c black",
";X c black",
":X c black",
">X c black",
",X c black",
"<X c black",
"1X c black",
"2X c black",
"3X c black",
"4X c black",
"5X c black",
"6X c black",
"7X c black",
"8X c black",
"9X c black",
"0X c black",
"qX c black",
"wX c black",
"eX c black",
"rX c black",
"tX c black",
"yX c black",
"uX c black",
"iX c black",
"pX c black",
"aX c black",
"sX c black",
"dX c black",
"fX c black",
"gX c black",
"hX c black",
"jX c black",
"kX c black",
"lX c black",
"zX c black",
"xX c black",
"cX c black",
"vX c black",
"bX c black",
"nX c black",
"mX c black",
"MX c black",
"NX c black",
"BX c black",
"VX c black",
"CX c black",
"ZX c black",
"AX c black",
"SX c black",
"DX c black",
"FX c black",
"GX c black",
"HX c black",
"JX c black",
"KX c black",
"LX c black",
"PX c black",
"IX c black",
"UX c black",
/* pixels */
"U.U.U.U.U.U.} z P R Q G Q U.U.U.U.U.",
"U.U.U.U.U.$.P s : : 4 s G U.U.U.U.U.",
"U.U.U.U.U.G c c B c y 4 4 l U.U.U.U.",
"U.U.U.U.R [ &.%.%.+.! u ; U.V =.U.U.",
"U.U.U.U.$.g.N.c.c.h.6.[ s U.z Q U.U.",
"U.U.U.k.k.V.C.J.L.F.M.u.X.q s z U.U.",
"U.U.U.U.*.g.J.Z.Z.d.,.3.e.P c 4 G U.",
"U.' ~ D U.=.g.g.&.H g d G U.U.q n U.",
"U.F O.| N k S j r j h p 8 T ( y g P ",
"U.F ' I v 2 8 * r b m m r 8 k k w U.",
"U.^ ' j < D ..= 3 r 0 0 8 - p N w a ",
"U.U.~ t 9 9.f.l # 1 $ + % v T w 6 i ",
"U.U.U.o.>.A.b.1.5 O # U.U.$.,.A = 9 ",
"U.I.L.C.L.G.m.c.U.6.U.U.y.d.U.W { U.",
"U.I.J.F.L.C.C.c.N.J.H.S.C.x.;. .1.4.",
"U.J.U.C.C.r.5.p.h.J.P.K.B.x.%.X.4.U.",
"U.v.v.7.-.@._ -.s.C.S.D.U.j. .:.h.U.",
"U.0.w.) J Y C L :.h.n.n.z.t.` r.U.U.",
"U.....c %.8. .E U.X.r.l.U.<.W t.U.U.",
"U.U.G s +.c.j.r.X.M U.h.:.! Z U.U.U.",
"U.U.x c { 1.r.q.J ) X.%.B s J U.U.U.",
"U.U.Q V u.5.a.4.o.o.! B 7 , y U.U.U.",
"U.U.U.V v.N.z.t.u.[ e > o U.U.U.U.U.",
"U.U.U.U.3.U.s.h.>.B & X   v U.U.U.U.",
"U.U.U.n &.2.4.;.R 7 X X k O.U.U.U.U.",
"U.U.U.n #.6.2.{ l @ X v *.$.U.U.U.U.",
"/ K ~ N U #.] f U.. l U.i.( ^ U.U.U."
};
