/* XPM */
static char *_ae6ffce3d074d24bc2db1a2c24510c76Tk17mQy3nZtT5PK_2[] = {
/* columns rows colors chars-per-pixel */
"18 27 256 2 ",
"   c #2F1100",
".  c #361807",
"X  c #3A1C04",
"o  c #3D2213",
"O  c #411F11",
"+  c #41230B",
"@  c #442B0B",
"#  c #452A15",
"$  c #452C1A",
"%  c #462014",
"&  c #472906",
"*  c #483729",
"=  c #492E1C",
"-  c #4A2A22",
";  c #4B2B0C",
":  c #4B3322",
">  c #4C320C",
",  c #4C3515",
"<  c #4E3006",
"1  c #4E3913",
"2  c #512F04",
"3  c #513A1D",
"4  c #523E32",
"5  c #533325",
"6  c #533412",
"7  c #54340D",
"8  c #543D25",
"9  c #553815",
"0  c #55411C",
"q  c #57392B",
"w  c #593D35",
"e  c #5A3321",
"r  c #5B360D",
"t  c #5B3A14",
"y  c #5B441B",
"u  c #5B4C52",
"i  c #5C462B",
"p  c #5C4A37",
"a  c #5D433A",
"s  c #623A23",
"d  c #624635",
"f  c #634B2D",
"g  c #64380D",
"h  c #643D2C",
"j  c #644626",
"k  c #645032",
"l  c #653C15",
"z  c #664B37",
"x  c #67532F",
"c  c #685648",
"v  c #685A59",
"b  c #6B431D",
"n  c #6B4420",
"m  c #6B4920",
"M  c #6B6364",
"N  c #6C3B13",
"B  c #6C5142",
"V  c #6C523D",
"C  c #6E5233",
"Z  c #713E14",
"A  c #714A24",
"S  c #715431",
"D  c #72635B",
"F  c #73461A",
"G  c #747174",
"H  c #75583A",
"J  c #764B25",
"K  c #764D32",
"L  c #765945",
"P  c #79552B",
"I  c #7B4E2C",
"U  c #7C5B35",
"Y  c #7C5C4B",
"T  c #7C6343",
"R  c #7C6D6D",
"E  c #7D7167",
"W  c #805630",
"Q  c #816A46",
"!  c #825B35",
"~  c #85613C",
"^  c #86542C",
"/  c #876E53",
"(  c #895D45",
")  c #897149",
"_  c #8A5C35",
"`  c #8A6543",
"'  c #8A6C58",
"]  c #8C633B",
"[  c #8E652D",
"{  c #906D5C",
"}  c #92653D",
"|  c #936234",
" . c #937453",
".. c #956442",
"X. c #956F4D",
"o. c #958171",
"O. c #97642C",
"+. c #976A42",
"@. c #996645",
"#. c #9A724B",
"$. c #9A876A",
"%. c #9B755A",
"&. c #9B7A4A",
"*. c #9D6B43",
"=. c #9D763F",
"-. c #A16D45",
";. c #A37253",
":. c #A3734B",
">. c #A37C5B",
",. c #A4794E",
"<. c #A47C45",
"1. c #A5753D",
"2. c #A67A54",
"3. c #A9754E",
"4. c #A97655",
"5. c #A9783B",
"6. c #AA795B",
"7. c #AC8155",
"8. c #AC825B",
"9. c #AC906C",
"0. c #AD7C54",
"q. c #AE824A",
"w. c #AEA392",
"e. c #B17F55",
"r. c #B27A46",
"t. c #B28254",
"y. c #B28C6E",
"u. c #B38561",
"i. c #B47E4E",
"p. c #B4835B",
"a. c #B48A5D",
"s. c #B68A61",
"d. c #B98647",
"f. c #BA864B",
"g. c #BB855C",
"h. c #BB8F6C",
"j. c #BB915B",
"k. c #BD8653",
"l. c #BD8A4C",
"z. c #BD9165",
"x. c #BE8A56",
"c. c #BE8C63",
"v. c #BE956A",
"b. c #C38C52",
"n. c #C38D64",
"m. c #C48D5B",
"M. c #C49263",
"N. c #C69055",
"B. c #C6916B",
"V. c #C89B69",
"C. c #C99369",
"Z. c #CA8F64",
"A. c #CA925C",
"S. c #CB9466",
"D. c #D19A66",
"F. c None",
"G. c black",
"H. c black",
"J. c black",
"K. c black",
"L. c black",
"P. c black",
"I. c black",
"U. c black",
"Y. c black",
"T. c black",
"R. c black",
"E. c black",
"W. c black",
"Q. c black",
"!. c black",
"~. c black",
"^. c black",
"/. c black",
"(. c black",
"). c black",
"_. c black",
"`. c black",
"'. c black",
"]. c black",
"[. c black",
"{. c black",
"}. c black",
"|. c black",
" X c black",
".X c black",
"XX c black",
"oX c black",
"OX c black",
"+X c black",
"@X c black",
"#X c black",
"$X c black",
"%X c black",
"&X c black",
"*X c black",
"=X c black",
"-X c black",
";X c black",
":X c black",
">X c black",
",X c black",
"<X c black",
"1X c black",
"2X c black",
"3X c black",
"4X c black",
"5X c black",
"6X c black",
"7X c black",
"8X c black",
"9X c black",
"0X c black",
"qX c black",
"wX c black",
"eX c black",
"rX c black",
"tX c black",
"yX c black",
"uX c black",
"iX c black",
"pX c black",
"aX c black",
"sX c black",
"dX c black",
"fX c black",
"gX c black",
"hX c black",
"jX c black",
"kX c black",
"lX c black",
"zX c black",
"xX c black",
"cX c black",
"vX c black",
"bX c black",
"nX c black",
"mX c black",
"MX c black",
"NX c black",
"BX c black",
"VX c black",
"CX c black",
"ZX c black",
"AX c black",
"SX c black",
"DX c black",
"FX c black",
"GX c black",
"HX c black",
"JX c black",
"KX c black",
"LX c black",
"PX c black",
"IX c black",
"UX c black",
/* pixels */
"F.F.F.F.F./ L L f i z L f F.F.F.F.F.",
"F.F.F.F.) T y 2 & @ & 8 i Q F.F.F.F.",
"F.F.F.F.S t s t t t 6 & > f Q F.F.F.",
"F.F.F.F.n ~ ! ! _ W m 7 < , x / F.F.",
"F.F.F.P ] e.3.0.0.:.} m r < 1 / F.F.",
"F.F.F.>.e.n.n.m.g.t.0.} b 9 , k F.F.",
"F.F.$.y.B.B.Z.m.S.c.M.c.8.0 y 1 x F.",
"F.w.o.Y ;.s.B.C.B.u.6.2.,.) y 9 y F.",
"F.v D L Q %.s.h.6.( K m S  .Q 8 i T ",
"D u D a a B ' { H w e q i L / z 8 C ",
"u M v 4 4 * q $ - a w w w 5 d z 8 V ",
"F.D v * : $ a . - : 5 5 5 = o V Y i ",
"F.c p = # z  .: X o = $ $ 3 : d d L ",
"F.9. .s h >.a.U . . % O % s X.~ j Y ",
"F.v.z.0.t.z.j.q.K h s n K #.8.] ] #.",
"F.V.M.n.S.A.l.f.e.p.3.4.e.p.0.} *.F.",
"F.V.M.m.D.A.b.b.i.S.M.m.m.c.:...0.F.",
"F.M.g.k.A.x.r.i.1.x.A.N.N.p.*.+.F.F.",
"F.8.=.-.*.-._ | 1.d.b.l.x.7.] ] F.F.",
"F.&.` F N N Z F [ 1.d.f.d.2.U ` F.F.",
"F.T H j _ _ I N g F O.5.5.} A F.F.F.",
"F.T f j ! 0.0.*.^ l b <.[ n C F.F.F.",
"F.F.i C } -.t.:.! W J ] m t Q F.F.F.",
"F.F.i S 8.*.-.} ` ` m j ; i L F.F.F.",
"F.F.c C s.g.e.,.&.~ 6 + . z F.F.F.F.",
"F.F.D j ;.0.0.2.) m @   5 E F.F.F.F.",
"G M D y ..@...} S , . 4 ' D R F.F.F."
};
