/* XPM */
static char *_ae6ffce3d074d24bc2db1a2c24510c76Tk17mQy3nZtT5PK_5[] = {
/* columns rows colors chars-per-pixel */
"18 27 256 2 ",
"   c #2C1400",
".  c #341A05",
"X  c #361D13",
"o  c #392716",
"O  c #3A2818",
"+  c #3A2829",
"@  c #3B230C",
"#  c #3B2506",
"$  c #422D20",
"%  c #432B03",
"&  c #433322",
"*  c #442B1D",
"=  c #443228",
"-  c #452917",
";  c #45310B",
":  c #473102",
">  c #482827",
",  c #482B21",
"<  c #482F0A",
"1  c #492A05",
"2  c #4B3404",
"3  c #4B3937",
"4  c #4C3411",
"5  c #4D320C",
"6  c #4D3A26",
"7  c #4F3908",
"8  c #4F3E32",
"9  c #52340D",
"0  c #52342A",
"q  c #523A1A",
"w  c #523E3B",
"e  c #543E31",
"r  c #554234",
"t  c #563909",
"y  c #573F24",
"u  c #57420E",
"i  c #58400F",
"p  c #593F1B",
"a  c #5A3D15",
"s  c #5A4424",
"d  c #5B441B",
"f  c #5B443E",
"g  c #5C4535",
"h  c #5D4215",
"j  c #5E4A24",
"k  c #61431B",
"l  c #634A22",
"z  c #634C3D",
"x  c #643911",
"c  c #645344",
"v  c #645453",
"b  c #684727",
"n  c #684D45",
"m  c #68524C",
"M  c #693C0E",
"N  c #6A5537",
"B  c #6B441B",
"V  c #6B4B23",
"C  c #6B542C",
"Z  c #6C5543",
"A  c #6C5756",
"S  c #6C5A5F",
"D  c #6D4B1C",
"F  c #6D605B",
"G  c #6E5224",
"H  c #6E5E63",
"J  c #714F36",
"K  c #715323",
"L  c #724C22",
"P  c #73552D",
"I  c #745C46",
"U  c #766263",
"Y  c #774918",
"T  c #796352",
"R  c #796665",
"E  c #7A5928",
"W  c #7A643E",
"Q  c #7B5C3B",
"!  c #7B6E79",
"~  c #7C6659",
"^  c #7F6429",
"/  c #806D66",
"(  c #826737",
")  c #826A4D",
"_  c #83632B",
"`  c #836332",
"'  c #836B56",
"]  c #855927",
"[  c #855B35",
"{  c #886844",
"}  c #897247",
"|  c #8A674D",
" . c #8A7354",
".. c #8B6334",
"X. c #8B6B3B",
"o. c #8C643A",
"O. c #916634",
"+. c #917C51",
"@. c #936C3C",
"#. c #946B44",
"$. c #946D51",
"%. c #947343",
"&. c #947449",
"*. c #96733B",
"=. c #968053",
"-. c #977A4B",
";. c #997454",
":. c #998160",
">. c #9A7342",
",. c #9D795C",
"<. c #A2744C",
"1. c #A37C54",
"2. c #A3804C",
"3. c #A47C4C",
"4. c #A47D43",
"5. c #A4835B",
"6. c #A48453",
"7. c #A48665",
"8. c #A57C55",
"9. c #A67743",
"0. c #A79572",
"q. c #A8885E",
"w. c #A98342",
"e. c #AA7B3D",
"r. c #AB844D",
"t. c #AC8354",
"y. c #AD884B",
"u. c #AD8952",
"i. c #AF8B5B",
"p. c #B18649",
"a. c #B18B6A",
"s. c #B28354",
"d. c #B28C61",
"f. c #B47D41",
"g. c #B48B5B",
"h. c #B5844B",
"j. c #B58C53",
"k. c #B5925B",
"l. c #BA8656",
"z. c #BA8C55",
"x. c #BA915D",
"c. c #BB8C5B",
"v. c #BB9362",
"b. c #BC9868",
"n. c #BD9558",
"m. c #C2904D",
"M. c #C29355",
"N. c #C3A273",
"B. c #C48D53",
"V. c #C4955B",
"C. c #C49A6A",
"Z. c #C59959",
"A. c #C69B64",
"S. c #C6A560",
"D. c #C78D5C",
"F. c #C7A25F",
"G. c #C99466",
"H. c #CB9256",
"J. c #CB9A63",
"K. c #CBA668",
"L. c #CC995D",
"P. c #CC9D6D",
"I. c #CD965B",
"U. c #D49E66",
"Y. c None",
"T. c black",
"R. c black",
"E. c black",
"W. c black",
"Q. c black",
"!. c black",
"~. c black",
"^. c black",
"/. c black",
"(. c black",
"). c black",
"_. c black",
"`. c black",
"'. c black",
"]. c black",
"[. c black",
"{. c black",
"}. c black",
"|. c black",
" X c black",
".X c black",
"XX c black",
"oX c black",
"OX c black",
"+X c black",
"@X c black",
"#X c black",
"$X c black",
"%X c black",
"&X c black",
"*X c black",
"=X c black",
"-X c black",
";X c black",
":X c black",
">X c black",
",X c black",
"<X c black",
"1X c black",
"2X c black",
"3X c black",
"4X c black",
"5X c black",
"6X c black",
"7X c black",
"8X c black",
"9X c black",
"0X c black",
"qX c black",
"wX c black",
"eX c black",
"rX c black",
"tX c black",
"yX c black",
"uX c black",
"iX c black",
"pX c black",
"aX c black",
"sX c black",
"dX c black",
"fX c black",
"gX c black",
"hX c black",
"jX c black",
"kX c black",
"lX c black",
"zX c black",
"xX c black",
"cX c black",
"vX c black",
"bX c black",
"nX c black",
"mX c black",
"MX c black",
"NX c black",
"BX c black",
"VX c black",
"CX c black",
"ZX c black",
"AX c black",
"SX c black",
"DX c black",
"FX c black",
"GX c black",
"HX c black",
"JX c black",
"KX c black",
"LX c black",
"PX c black",
"IX c black",
"UX c black",
/* pixels */
"Y.Y.Y.Y.Y.Y.I N l s y N N I Y.Y.Y.Y.",
"Y.Y.Y.Y.7.I j < < < 2 < q N ) Y.Y.Y.",
"Y.Y.Y.Y. .p k h a k a 5 5 4 N W Y.Y.",
"Y.Y.Y.Y.G ` ` [ E ` E k 9 % q W Y.Y.",
"Y.Y.Y.{ ( u.r.e.3.<.%.] h : ; l +.Y.",
"Y.Y.Y.=.6.x.M.B.n.t.y.>.P t u 7 C Y.",
"Y.Y.0.a.C.C.Z.L.J.M.M.z.p.E q i k Q ",
"Y.Y.:. .,.k.A.J.J.M.j.z.z.2.P l p J ",
"Y.U ~ T | ,.d.C.v.1.o.[ ` } } j q I ",
"/ v F z g Q ;.7.| J k p l N ) T 6 Z ",
"A S H g r 0 z z > e f e e r m T 6 g ",
"Y.R R 6 = , , X o 6 r e e w = 8 F g ",
"Y.A n 8 & & F = X X $ & = 3 + 3 z c ",
"Y.q.} 4 < ) a.I   @ $ O $ , g ' g Z ",
"Y.N.k.&.@.b.C.5.k 1 - 1 1 J $.;.Q $.",
"Y.K.S.A.P.P.G.D.9.#.[ o.o.3.t.#.@.O.",
"Y.K.S.J.U.I.H.H.h.V.G.V.c.l.s.] 9.Y.",
"Y.F.n.n.L.L.m.D.f.B.L.L.Z.z.s.] s.Y.",
"Y.x.6.w.n.j.9.e.e.h.V.V.x.j.2._ 8.Y.",
"Y.q.%.^ E ` Y Y >.r.c.j.u.i.-.` Y.Y.",
"Y.:.) l L D B x L O.4.y.y.3.` K Y.Y.",
"Y.Y.N d ` <.*.[ L M L 4.4.` V G Y.Y.",
"Y.Y.y C X.6.k.8...L B *.X.l C Y.Y.Y.",
"Y.Y.z V q.%.3.>.[ ` D Q l 4 Z Y.Y.Y.",
"Y.Y.Z l d.t.3.>.>.X.h q # * Y.Y.Y.Y.",
"Y.Y.T b 2.k.g.t.-.Q 4 . X z Y.Y.Y.Y.",
"! U ~ l X.>.3.>.( l % O A U U Y.Y.Y."
};
