/* XPM */
static char *_ae6ffce3d074d24bc2db1a2c24510c76Tk17mQy3nZtT5PK_1[] = {
/* columns rows colors chars-per-pixel */
"18 27 256 2 ",
"   c #5E4223",
".  c #675B53",
"X  c #AB7A54",
"o  c #361900",
"O  c #3C1E03",
"+  c #3A1B08",
"@  c #3C2313",
"#  c #431E00",
"$  c #412602",
"%  c #482607",
"&  c #462B0D",
"*  c #4B2C0A",
"=  c #522C0B",
"-  c #4B320C",
";  c #55320D",
":  c #58300E",
">  c #4C2C14",
",  c #41241D",
"<  c #442D1A",
"1  c #4A311A",
"2  c #543413",
"3  c #55391B",
"4  c #5C3B1D",
"5  c #632D06",
"6  c #65360C",
"7  c #663A14",
"8  c #643E1C",
"9  c #753F15",
"0  c #452D23",
"q  c #4C2D25",
"w  c #41292A",
"e  c #4D3225",
"r  c #4E392C",
"t  c #563927",
"y  c #543C2D",
"u  c #4C3833",
"i  c #543C35",
"p  c #57421B",
"a  c #6B461B",
"s  c #77441B",
"d  c #55422B",
"f  c #564133",
"g  c #584237",
"h  c #5D473D",
"j  c #6D4522",
"k  c #624823",
"l  c #64452B",
"z  c #66492C",
"x  c #6A4A2C",
"c  c #734421",
"v  c #784521",
"b  c #754925",
"n  c #744B2A",
"m  c #7C4E2C",
"M  c #67502C",
"N  c #76522D",
"B  c #7C552D",
"V  c #634434",
"C  c #664636",
"Z  c #6B4C34",
"A  c #614A3B",
"S  c #724F3A",
"D  c #6D5433",
"F  c #6E5638",
"G  c #765637",
"H  c #7C5A3A",
"J  c #7C603C",
"K  c #594946",
"L  c #644A45",
"P  c #6F5448",
"I  c #725C4D",
"U  c #7A5A48",
"Y  c #644F51",
"T  c #615356",
"R  c #6B5958",
"E  c #776247",
"W  c #725F63",
"Q  c #6D6863",
"!  c #786762",
"~  c #706F74",
"^  c #834D26",
"/  c #804B29",
"(  c #8C562C",
")  c #925A2C",
"_  c #985A2F",
"`  c #895A35",
"'  c #865C3D",
"]  c #8C5B3A",
"[  c #945E3B",
"{  c #896336",
"}  c #93613C",
"|  c #99643B",
" . c #9D653D",
".. c #A56A3A",
"X. c #B06F3A",
"o. c #835C46",
"O. c #955C42",
"+. c #825D52",
"@. c #8D6342",
"#. c #89654C",
"$. c #946341",
"%. c #9C6741",
"&. c #946A45",
"*. c #9B6841",
"=. c #9E6449",
"-. c #966B4B",
";. c #9B6B4A",
":. c #9C724B",
">. c #946D56",
",. c #9D7453",
"<. c #A36C49",
"1. c #A87847",
"2. c #A5734A",
"3. c #B4764C",
"4. c #B27A4E",
"5. c #A67755",
"6. c #AC7453",
"7. c #A47A54",
"8. c #A67C5C",
"9. c #AD7A5B",
"0. c #B37D53",
"q. c #BA7B52",
"w. c #B27C5A",
"e. c #8B7863",
"r. c #B37D65",
"t. c #C27D52",
"y. c #AA814D",
"u. c #AC875A",
"i. c #B68156",
"p. c #BC8255",
"a. c #B5845B",
"s. c #BB835A",
"d. c #BB8A5D",
"f. c #9D8669",
"g. c #A98268",
"h. c #BC8466",
"j. c #B58C63",
"k. c #BC8D62",
"l. c #B68C68",
"z. c #BD8E69",
"x. c #B89A6E",
"c. c #B79971",
"v. c #C38454",
"b. c #C38459",
"n. c #C78C5E",
"m. c #CB8D5A",
"M. c #C48C62",
"N. c #C49364",
"B. c #CD9463",
"V. c #C89866",
"C. c #C4946A",
"Z. c #CA9669",
"A. c None",
"S. c #8A6543",
"D. c #5B441B",
"F. c #2F1100",
"G. c #361807",
"H. c #3A1C04",
"J. c #3D2213",
"K. c #411F11",
"L. c #472906",
"P. c #41230B",
"I. c #442B0B",
"U. c #4B2B0C",
"Y. c #512F04",
"T. c #4E3006",
"R. c #54340D",
"E. c #5B360D",
"W. c #462014",
"Q. c #452A15",
"!. c #452C1A",
"~. c #492E1C",
"^. c #4C3515",
"/. c #4E3913",
"(. c #533412",
"). c #553815",
"_. c #5B3A14",
"`. c #513A1D",
"'. c #64380D",
"]. c #653C15",
"[. c #6C3B13",
"{. c #713E14",
"}. c #4A2A22",
"|. c #4B3322",
" X c #483729",
".X c #533325",
"XX c #5A3321",
"oX c #543D25",
"OX c #57392B",
"+X c #523E32",
"@X c #593D35",
"#X c #623A23",
"$X c #643D2C",
"%X c #55411C",
"&X c #6B431D",
"*X c #73461A",
"=X c #5C462B",
"-X c #5C4A37",
";X c #5D433A",
":X c #644626",
">X c #6B4420",
",X c #6B4920",
"<X c #634B2D",
"1X c #714A24",
"2X c #764B25",
"3X c #7B4E2C",
"4X c #67532F",
"5X c #79552B",
"6X c #624635",
"7X c #664B37",
"8X c #764D32",
"9X c #645032",
"0X c #6E5233",
"qX c #6C523D",
"wX c #715431",
"eX c #7C5B35",
"rX c #75583A",
"tX c #5B4C52",
"yX c #6C5142",
"uX c #685648",
"iX c #765945",
"pX c #7C5C4B",
"aX c #685A59",
"sX c #7C6343",
"dX c #72635B",
"fX c #6B6364",
"gX c #7C6D6D",
"hX c #7D7167",
"jX c #747174",
"kX c #86542C",
"lX c #805630",
"zX c #825B35",
"xX c #8A5C35",
"cX c #8E652D",
"vX c #97642C",
"bX c #85613C",
"nX c #8C633B",
"mX c #936234",
"MX c #92653D",
"NX c #9D763F",
"BX c #A5753D",
"VX c #A9783B",
"CX c #895D45",
"ZX c #816A46",
"AX c #956442",
"SX c #996645",
"DX c #976A42",
"FX c #9D6B43",
"GX c #956F4D",
"HX c #897149",
"JX c #9A724B",
"KX c #9B7A4A",
"LX c #876E53",
"PX c #8A6C58",
"IX c #906D5C",
"UX c #937453",
/* pixels */
"A.A.A.A.A.#.#.H l   Z H M A.A.A.A.A.",
"A.A.A.A.J H 3 > * & * 3 k A.A.A.A.A.",
"A.A.A.A.D 4 7 8 8 8 ; & - k A.A.A.A.",
"A.A.A.J n @.] } ] ` c ; * - M f.A.A.",
"A.A.A.' @.u.w.s.3.6.} j = % p E A.A.",
"A.A.A.8.j.k.N.n.t.b.4.$.c ; 2 M A.A.",
"A.A.f.g.l.N.B.m.Z.N.N.k.y.8 4 2 A.A.",
"A.e.e.+.>.r.M.N.l.X -.@.-.-.a 2 z A.",
"A.. R L P >.8.8.#.U V V C #.U 2   A.",
"W . W K g V U Z y A f y y L I t 3 A.",
"Y W T u i 0 q @ q h g f f w u L V A.",
"A.R Y u 0 e U @ , < 1 e r w u L P Z ",
"A.I A , 1 >.g.t o $ , @ @ r I V   o.",
"A.c.g.G H z.z.-.* O # & 3 ] :.B m &.",
"A.x.a.k.z.C.s.s.;.' B ' &.X X ) |  .",
"A.x.k.N.V.N.b.t.p.N.M.d.s.i.<.) 1.A.",
"A.x.j.s.m.B.t.t.3.m.m.b.b.q. .%.i.A.",
"A.j.y.1.i.X._ ..X.v.n.v.p.q._ %.A.A.",
"A.,.&.{ m ^ 9 v ..3.p.q.i.0.( } A.A.",
"A.&.' n N c 6 5 v ) 6.4.X ;.m 5.A.A.",
"A.H N 8 @.9.*.[ / 7 v 2.<.x x A.A.A.",
"A.A.4 x B 7.a.6.] v s <.b 3 F A.A.A.",
"A.A.1 G :.$.2.[ m ] b m : r A A.A.A.",
"A.A.  H l.,.2.%.-.' 4 ; + d A.A.A.A.",
"A.A.A.x 8.r.h.r.-.n % o + I A.A.A.A.",
"A.A.! 8 -.=.6.<.o.4 o O F A.A.A.A.A.",
"~ Q ! l @.| O.] S $ o F e.R Q A.A.A."
};
