/* XPM */
static char *_ae6ffce3d074d24bc2db1a2c24510c76Tk17mQy3nZtT5PK_6[] = {
/* columns rows colors chars-per-pixel */
"18 27 256 2 ",
"   c #2B1604",
".  c #331B00",
"X  c #3A250D",
"o  c #3A2918",
"O  c #3B2415",
"+  c #3D291B",
"@  c #402604",
"#  c #41231E",
"$  c #412C18",
"%  c #422E23",
"&  c #442D04",
"*  c #443108",
"=  c #46331B",
"-  c #4A2E1A",
";  c #4A2E27",
":  c #4A3525",
">  c #4B2E0B",
",  c #4B3B32",
"<  c #4C330D",
"1  c #4E3514",
"2  c #4E3B2E",
"3  c #4F390B",
"4  c #523D32",
"5  c #53372F",
"6  c #533A0D",
"7  c #533C13",
"8  c #54360D",
"9  c #543D1E",
"0  c #54431B",
"q  c #544335",
"w  c #55443A",
"e  c #573D26",
"r  c #583606",
"t  c #5A3C17",
"y  c #5B431B",
"u  c #5B433B",
"i  c #5B493C",
"p  c #5C4433",
"a  c #5D410D",
"s  c #5D4315",
"d  c #5D4625",
"f  c #5D4A42",
"g  c #5E4C23",
"h  c #624413",
"j  c #624436",
"k  c #624623",
"l  c #634629",
"z  c #634B3E",
"x  c #65451B",
"c  c #65532C",
"v  c #674D2A",
"b  c #684816",
"n  c #694E1C",
"m  c #695658",
"M  c #6A3E0E",
"N  c #6A5B3C",
"B  c #6B5435",
"V  c #6B5748",
"C  c #6C4414",
"Z  c #6C4E24",
"A  c #6C5227",
"S  c #6E4419",
"D  c #6F605C",
"F  c #715E55",
"G  c #73552C",
"H  c #735D35",
"J  c #745425",
"K  c #754B14",
"L  c #75531D",
"P  c #756239",
"I  c #776546",
"U  c #785937",
"Y  c #78645A",
"T  c #786765",
"R  c #7A5923",
"E  c #7B633B",
"W  c #7C542A",
"Q  c #7C5E42",
"!  c #7E7047",
"~  c #7E7070",
"^  c #7F6137",
"/  c #815C22",
"(  c #815D35",
")  c #827776",
"_  c #836432",
"`  c #846A57",
"'  c #865E28",
"]  c #886938",
"[  c #8A724A",
"{  c #8C6B3E",
"}  c #8C6E49",
"|  c #8F6433",
" . c #8F7247",
".. c #917453",
"X. c #926A34",
"o. c #926B2E",
"O. c #946634",
"+. c #946D3D",
"@. c #947246",
"#. c #94753D",
"$. c #957858",
"%. c #98774A",
"&. c #996C3B",
"*. c #99733C",
"=. c #9B6D42",
"-. c #9B7D52",
";. c #9C804D",
":. c #9D7544",
">. c #9F806D",
",. c #A27B3E",
"<. c #A27C44",
"1. c #A48260",
"2. c #A57A4C",
"3. c #A58246",
"4. c #A87A39",
"5. c #A88859",
"6. c #A9844E",
"7. c #AA7D4C",
"8. c #AA8D61",
"9. c #AB823B",
"0. c #AC8C55",
"q. c #AC9163",
"w. c #AD8354",
"e. c #B38553",
"r. c #B38D4D",
"t. c #B3A273",
"y. c #B48C65",
"u. c #B48D54",
"i. c #B49254",
"p. c #B4956B",
"a. c #B49A76",
"s. c #B58443",
"d. c #B68957",
"f. c #B8864A",
"g. c #B99463",
"h. c #BA8B4D",
"j. c #BB9151",
"k. c #BB924D",
"l. c #BB9A6C",
"z. c #BC995E",
"x. c #BD8E5B",
"c. c #BD925E",
"v. c #C18F56",
"b. c #C19F72",
"n. c #C2904F",
"m. c #C2A377",
"M. c #C3935C",
"N. c #C49A5D",
"B. c #C49B63",
"V. c #C59453",
"C. c #C5A16B",
"Z. c #C69D6A",
"A. c #CA965C",
"S. c #CA9956",
"D. c #CA9C5D",
"F. c #CB9B63",
"G. c #CBA364",
"H. c #CEAB77",
"J. c #D19B5E",
"K. c #D29D61",
"L. c None",
"P. c black",
"I. c black",
"U. c black",
"Y. c black",
"T. c black",
"R. c black",
"E. c black",
"W. c black",
"Q. c black",
"!. c black",
"~. c black",
"^. c black",
"/. c black",
"(. c black",
"). c black",
"_. c black",
"`. c black",
"'. c black",
"]. c black",
"[. c black",
"{. c black",
"}. c black",
"|. c black",
" X c black",
".X c black",
"XX c black",
"oX c black",
"OX c black",
"+X c black",
"@X c black",
"#X c black",
"$X c black",
"%X c black",
"&X c black",
"*X c black",
"=X c black",
"-X c black",
";X c black",
":X c black",
">X c black",
",X c black",
"<X c black",
"1X c black",
"2X c black",
"3X c black",
"4X c black",
"5X c black",
"6X c black",
"7X c black",
"8X c black",
"9X c black",
"0X c black",
"qX c black",
"wX c black",
"eX c black",
"rX c black",
"tX c black",
"yX c black",
"uX c black",
"iX c black",
"pX c black",
"aX c black",
"sX c black",
"dX c black",
"fX c black",
"gX c black",
"hX c black",
"jX c black",
"kX c black",
"lX c black",
"zX c black",
"xX c black",
"cX c black",
"vX c black",
"bX c black",
"nX c black",
"mX c black",
"MX c black",
"NX c black",
"BX c black",
"VX c black",
"CX c black",
"ZX c black",
"AX c black",
"SX c black",
"DX c black",
"FX c black",
"GX c black",
"HX c black",
"JX c black",
"KX c black",
"LX c black",
"PX c black",
"IX c black",
"UX c black",
/* pixels */
"L.L.L.L.L.L.! B g 0 7 g B c L.L.L.L.",
"L.L.L.L.L.H d < < < < < 3 g P L.L.L.",
"L.L.L.L.H v Z n x x k 7 * < B E L.L.",
"L.L.L.L.H ] *.| { ] _ n 8 < 3 B L.L.",
"L.L.L.-.{ 6.j.f.w.w.3.' b 8 & d E L.",
"L.L.L.1.p.z.N.D.N.N.c.<._ a 8 7 l L.",
"L.L.t.5.y.Z.G.D.D.G.N.z.z.+.h h a Z ",
"L.L.>.} } y.b.C.C.g.3.<.<.0.] h r Z ",
"L.V F F I } 8.p.q.%.U G Z E ..A 6 G ",
"T m Y F u z Q ..B p e e e d Q I 9 v ",
"L.D Y u q 4 5 ; # p z j p 2 q z i i ",
"L.D Y 2 % ; z ; + = 2 4 4 4 $ , Y f ",
"L.Y V : - p >.V . . + + + 2 % f w i ",
"L.a.5.Z k -.m.$.X   O o X 1 Q ..z B ",
"L.H.Z.c.d.B.l.y._ l t k v ] 1.2.( @.",
"L.H.Z.F.F.F.M.x.d.e.w.7.7.e.e.=.O.&.",
"L.C.B.A.J.J.F.n.h.V.K.S.V.n.s.| 4.L.",
"L.l.c.v.A.A.f.f.s.h.S.V.V.v.s./ h.L.",
"L.5.6.:.2.2.X.o.,.9.k.k.j.u.6.W 6.L.",
"L.;.@.W Z b S C ' ,.r.r.u.i.#._ L.L.",
"L.[ E s _ _ L M S K X.6.<.:.R J L.L.",
"L.L.N 9 _ 5.w.2.O.S M :.*./ x L.L.L.",
"L.L.d d ..%.x.w.| W K @.^ t k L.L.L.",
"L.L.N v 8.:.2.&._  .G G 6 - l L.L.L.",
"L.L.L.v q.g.e.2.;. .s * . $ L.L.L.L.",
"L.L.Y l @.w.d.e.%.H >   o V L.L.L.L.",
") T ` y  .@.&.&.^ y @ % F T ~ L.L.L."
};
